<?xml version="1.0" encoding="utf-8"?>
<!-- Generator: Adobe Illustrator 27.5.0, SVG Export Plug-In . SVG Version: 6.00 Build 0)  -->
<svg version="1.1" id="Ñëîé_1" xmlns="http://www.w3.org/2000/svg" xmlns:xlink="http://www.w3.org/1999/xlink" x="0px" y="0px"
	 viewBox="0 0 2343.324 2200" style="enable-background:new 0 0 2343.324 2200;" xml:space="preserve">
<rect style="fill:#FFFFFF;" width="2343.325" height="2200"/>
<g>
	<path style="fill:#322A28;" d="M430.694,282.046h32.592l22.51,63.803h0.276l22.648-63.803h32.454v97.775h-21.544v-74.988h-0.276
		l-25.687,74.988h-16.433l-24.721-74.988h-0.275v74.988h-21.544V282.046z"/>
	<path style="fill:#322A28;" d="M555.95,346.262c0-5.338,0.966-10.172,2.9-14.501c1.933-4.326,4.579-8.031,7.941-11.116
		c3.359-3.084,7.319-5.456,11.876-7.112c4.558-1.658,9.413-2.486,14.57-2.486c5.155,0,10.012,0.829,14.57,2.486
		c4.558,1.657,8.515,4.028,11.877,7.112c3.359,3.085,6.007,6.791,7.941,11.116c1.933,4.328,2.9,9.162,2.9,14.501
		c0,5.341-0.967,10.174-2.9,14.501c-1.934,4.328-4.582,8.034-7.941,11.117c-3.362,3.086-7.319,5.455-11.877,7.112
		c-4.558,1.658-9.415,2.486-14.57,2.486c-5.157,0-10.012-0.829-14.57-2.486c-4.557-1.658-8.516-4.026-11.876-7.112
		c-3.362-3.083-6.008-6.789-7.941-11.117C556.917,356.436,555.95,351.603,555.95,346.262z M576.665,346.262
		c0,5.065,1.451,9.162,4.351,12.292c2.9,3.131,6.974,4.695,12.221,4.695c5.248,0,9.322-1.564,12.222-4.695
		c2.9-3.129,4.35-7.227,4.35-12.292c0-5.062-1.45-9.159-4.35-12.291c-2.9-3.129-6.974-4.695-12.222-4.695
		c-5.248,0-9.321,1.566-12.221,4.695C578.115,337.103,576.665,341.2,576.665,346.262z"/>
	<path style="fill:#322A28;" d="M644.609,275.417h20.715v44.468h0.276c2.393-3.222,5.456-5.5,9.183-6.836
		c3.729-1.333,7.755-2.002,12.085-2.002c4.786,0,9.067,0.99,12.843,2.969c3.774,1.981,6.974,4.626,9.597,7.941
		c2.624,3.314,4.648,7.112,6.076,11.393c1.427,4.281,2.141,8.77,2.141,13.465c0,5.065-0.784,9.715-2.348,13.948
		c-1.566,4.236-3.797,7.896-6.697,10.98c-2.9,3.085-6.377,5.479-10.427,7.181c-4.052,1.703-8.562,2.555-13.534,2.555
		c-2.395,0-4.65-0.324-6.767-0.967c-2.119-0.645-4.073-1.472-5.87-2.485c-1.795-1.013-3.361-2.141-4.695-3.383
		c-1.335-1.244-2.417-2.462-3.245-3.66h-0.276v8.838h-19.058V275.417z M663.668,346.262c0,5.065,1.45,9.162,4.35,12.292
		c2.9,3.131,6.974,4.695,12.222,4.695c5.248,0,9.321-1.564,12.221-4.695c2.9-3.129,4.351-7.227,4.351-12.292
		c0-5.062-1.451-9.159-4.351-12.291c-2.9-3.129-6.974-4.695-12.221-4.695c-5.248,0-9.322,1.566-12.222,4.695
		C665.117,337.103,663.668,341.2,663.668,346.262z"/>
	<path style="fill:#322A28;" d="M728.296,291.575c0-3.315,1.174-6.146,3.522-8.493c2.348-2.348,5.178-3.522,8.493-3.522
		c3.314,0,6.146,1.174,8.493,3.522c2.348,2.348,3.521,5.178,3.521,8.493c0,3.314-1.173,6.145-3.521,8.493
		c-2.348,2.348-5.18,3.521-8.493,3.521c-3.315,0-6.146-1.173-8.493-3.521C729.47,297.72,728.296,294.889,728.296,291.575z
		 M729.954,312.704h20.716v67.117h-20.716V312.704z"/>
	<path style="fill:#322A28;" d="M765.859,275.417h20.716v104.404h-20.716V275.417z"/>
	<path style="fill:#322A28;" d="M865.015,368.22c-3.314,4.236-7.505,7.505-12.567,9.805c-5.065,2.301-10.313,3.453-15.743,3.453
		c-5.157,0-10.012-0.829-14.57-2.486s-8.518-4.026-11.877-7.112c-3.362-3.083-6.007-6.789-7.941-11.117
		c-1.934-4.327-2.9-9.159-2.9-14.501c0-5.338,0.966-10.172,2.9-14.501c1.934-4.326,4.579-8.031,7.941-11.116
		c3.359-3.084,7.319-5.456,11.877-7.112c4.558-1.658,9.413-2.486,14.57-2.486c4.786,0,9.135,0.829,13.05,2.486
		c3.913,1.657,7.227,4.028,9.943,7.112c2.715,3.085,4.81,6.791,6.284,11.116c1.471,4.328,2.209,9.162,2.209,14.501v6.491h-48.059
		c0.829,3.959,2.625,7.112,5.386,9.46c2.762,2.348,6.167,3.521,10.219,3.521c3.405,0,6.283-0.759,8.632-2.278
		c2.348-1.519,4.395-3.474,6.145-5.87L865.015,368.22z M847.476,338.667c0.09-3.498-1.06-6.49-3.453-8.977
		c-2.396-2.485-5.479-3.729-9.253-3.729c-2.302,0-4.329,0.37-6.076,1.105c-1.75,0.738-3.246,1.681-4.488,2.831
		c-1.243,1.153-2.21,2.486-2.9,4.005c-0.69,1.519-1.083,3.107-1.174,4.764H847.476z"/>
	<path style="fill:#322A28;" d="M956.434,282.046h17.816l42.534,97.775h-24.306l-8.424-20.715h-37.978l-8.148,20.715h-23.752
		L956.434,282.046z M964.721,310.494l-11.877,30.382h23.891L964.721,310.494z"/>
	<path style="fill:#322A28;" d="M1025.899,312.704h19.058v8.838h0.276c0.828-1.195,1.91-2.417,3.245-3.66
		c1.334-1.243,2.9-2.37,4.695-3.383c1.796-1.013,3.751-1.84,5.87-2.486c2.117-0.643,4.372-0.966,6.767-0.966
		c4.972,0,9.482,0.852,13.534,2.554c4.05,1.705,7.527,4.098,10.427,7.182c2.9,3.086,5.131,6.745,6.697,10.979
		c1.564,4.236,2.348,8.886,2.348,13.948c0,4.696-0.714,9.185-2.141,13.465c-1.428,4.281-3.453,8.08-6.077,11.394
		c-2.624,3.315-5.823,5.962-9.598,7.941c-3.776,1.979-8.057,2.969-12.843,2.969c-4.329,0-8.356-0.669-12.085-2.003
		c-3.728-1.333-6.791-3.612-9.184-6.836h-0.276v38.669h-20.715V312.704z M1044.957,346.262c0,5.065,1.449,9.162,4.35,12.292
		c2.9,3.131,6.974,4.695,12.222,4.695s9.321-1.564,12.221-4.695c2.9-3.129,4.351-7.227,4.351-12.292
		c0-5.062-1.451-9.159-4.351-12.291c-2.9-3.129-6.974-4.695-12.221-4.695s-9.322,1.566-12.222,4.695
		C1046.406,337.103,1044.957,341.2,1044.957,346.262z"/>
	<path style="fill:#322A28;" d="M1112.901,312.704h19.058v8.838h0.276c0.828-1.195,1.91-2.417,3.245-3.66
		c1.334-1.243,2.9-2.37,4.695-3.383c1.796-1.013,3.751-1.84,5.87-2.486c2.117-0.643,4.372-0.966,6.767-0.966
		c4.973,0,9.482,0.852,13.534,2.554c4.05,1.705,7.527,4.098,10.427,7.182c2.9,3.086,5.131,6.745,6.697,10.979
		c1.564,4.236,2.348,8.886,2.348,13.948c0,4.696-0.714,9.185-2.141,13.465c-1.428,4.281-3.453,8.08-6.077,11.394
		c-2.624,3.315-5.823,5.962-9.597,7.941c-3.776,1.979-8.057,2.969-12.843,2.969c-4.33,0-8.356-0.669-12.085-2.003
		c-3.728-1.333-6.791-3.612-9.183-6.836h-0.276v38.669h-20.715V312.704z M1131.96,346.262c0,5.065,1.45,9.162,4.35,12.292
		c2.9,3.131,6.975,4.695,12.222,4.695s9.321-1.564,12.221-4.695c2.9-3.129,4.351-7.227,4.351-12.292
		c0-5.062-1.451-9.159-4.351-12.291c-2.9-3.129-6.974-4.695-12.221-4.695s-9.322,1.566-12.222,4.695
		C1133.409,337.103,1131.96,341.2,1131.96,346.262z"/>
	<path style="fill:#322A28;" d="M1241.47,282.046h32.317c7.823,0,15.258,0.876,22.304,2.624c7.042,1.75,13.187,4.581,18.435,8.493
		c5.248,3.914,9.414,9,12.498,15.26c3.084,6.262,4.628,13.858,4.628,22.786c0,7.92-1.498,14.893-4.489,20.923
		c-2.992,6.031-7.023,11.095-12.082,15.191c-5.067,4.099-10.911,7.206-17.541,9.322c-6.63,2.12-13.58,3.176-20.852,3.176h-35.216
		V282.046z M1263.015,359.934h11.185c4.974,0,9.598-0.504,13.88-1.519c4.281-1.012,7.985-2.693,11.119-5.041
		c3.126-2.348,5.59-5.431,7.388-9.253c1.794-3.819,2.691-8.492,2.691-14.016c0-4.787-0.897-8.954-2.691-12.499
		c-1.798-3.543-4.212-6.467-7.254-8.77c-3.038-2.299-6.607-4.026-10.7-5.178c-4.1-1.15-8.405-1.726-12.913-1.726h-12.705V359.934z"
		/>
	<path style="fill:#322A28;" d="M1407.191,368.22c-3.315,4.236-7.506,7.505-12.569,9.805c-5.063,2.301-10.311,3.453-15.743,3.453
		c-5.157,0-10.012-0.829-14.569-2.486s-8.517-4.026-11.878-7.112c-3.361-3.083-6.006-6.789-7.939-11.117
		c-1.935-4.327-2.901-9.159-2.901-14.501c0-5.338,0.966-10.172,2.901-14.501c1.933-4.326,4.578-8.031,7.939-11.116
		c3.361-3.084,7.321-5.456,11.878-7.112c4.557-1.658,9.412-2.486,14.569-2.486c4.786,0,9.136,0.829,13.052,2.486
		c3.912,1.657,7.225,4.028,9.943,7.112c2.714,3.085,4.809,6.791,6.283,11.116c1.471,4.328,2.21,9.162,2.21,14.501v6.491h-48.06
		c0.828,3.959,2.624,7.112,5.386,9.46c2.761,2.348,6.166,3.521,10.218,3.521c3.405,0,6.283-0.759,8.632-2.278
		c2.347-1.519,4.395-3.474,6.145-5.87L1407.191,368.22z M1389.652,338.667c0.09-3.498-1.059-6.49-3.454-8.977
		c-2.395-2.485-5.479-3.729-9.252-3.729c-2.302,0-4.329,0.37-6.075,1.105c-1.752,0.738-3.246,1.681-4.489,2.831
		c-1.244,1.153-2.21,2.486-2.899,4.005c-0.691,1.519-1.084,3.107-1.174,4.764H1389.652z"/>
	<path style="fill:#322A28;" d="M1415.886,312.704h22.373l16.987,45.573h0.275l15.743-45.573h20.854l-26.516,67.117h-21.957
		L1415.886,312.704z"/>
	<path style="fill:#322A28;" d="M1563.243,368.22c-3.315,4.236-7.506,7.505-12.569,9.805c-5.063,2.301-10.311,3.453-15.743,3.453
		c-5.157,0-10.012-0.829-14.569-2.486c-4.557-1.658-8.516-4.026-11.878-7.112c-3.361-3.083-6.006-6.789-7.939-11.117
		c-1.935-4.327-2.901-9.159-2.901-14.501c0-5.338,0.966-10.172,2.901-14.501c1.933-4.326,4.578-8.031,7.939-11.116
		c3.361-3.084,7.321-5.456,11.878-7.112c4.557-1.658,9.412-2.486,14.569-2.486c4.786,0,9.136,0.829,13.052,2.486
		c3.912,1.657,7.225,4.028,9.943,7.112c2.714,3.085,4.809,6.791,6.283,11.116c1.471,4.328,2.21,9.162,2.21,14.501v6.491h-48.059
		c0.828,3.959,2.624,7.112,5.386,9.46c2.76,2.348,6.166,3.521,10.218,3.521c3.405,0,6.283-0.759,8.632-2.278
		c2.347-1.519,4.395-3.474,6.145-5.87L1563.243,368.22z M1545.704,338.667c0.09-3.498-1.059-6.49-3.454-8.977
		c-2.395-2.485-5.479-3.729-9.252-3.729c-2.302,0-4.329,0.37-6.075,1.105c-1.752,0.738-3.246,1.681-4.489,2.831
		c-1.244,1.153-2.21,2.486-2.899,4.005c-0.691,1.519-1.084,3.107-1.174,4.764H1545.704z"/>
	<path style="fill:#322A28;" d="M1579.262,275.417h20.714v104.404h-20.714V275.417z"/>
	<path style="fill:#322A28;" d="M1612.404,346.262c0-5.338,0.966-10.172,2.899-14.501c1.935-4.326,4.58-8.031,7.941-11.116
		c3.361-3.084,7.319-5.456,11.878-7.112c4.557-1.658,9.412-2.486,14.569-2.486c5.155,0,10.012,0.829,14.569,2.486
		c4.559,1.657,8.516,4.028,11.878,7.112c3.359,3.085,6.008,6.791,7.941,11.116c1.933,4.328,2.899,9.162,2.899,14.501
		c0,5.341-0.966,10.174-2.899,14.501c-1.933,4.328-4.582,8.034-7.941,11.117c-3.361,3.086-7.319,5.455-11.878,7.112
		c-4.557,1.658-9.414,2.486-14.569,2.486c-5.157,0-10.012-0.829-14.569-2.486c-4.559-1.658-8.517-4.026-11.878-7.112
		c-3.361-3.083-6.006-6.789-7.941-11.117C1613.37,356.436,1612.404,351.603,1612.404,346.262z M1633.119,346.262
		c0,5.065,1.449,9.162,4.349,12.292c2.901,3.131,6.974,4.695,12.222,4.695c5.248,0,9.321-1.564,12.222-4.695
		c2.899-3.129,4.351-7.227,4.351-12.292c0-5.062-1.452-9.159-4.351-12.291c-2.901-3.129-6.975-4.695-12.222-4.695
		c-5.248,0-9.321,1.566-12.222,4.695C1634.569,337.103,1633.119,341.2,1633.119,346.262z"/>
	<path style="fill:#322A28;" d="M1701.061,312.704h19.058v8.838h0.277c0.828-1.195,1.91-2.417,3.246-3.66
		c1.332-1.243,2.899-2.37,4.695-3.383c1.794-1.013,3.75-1.84,5.87-2.486c2.116-0.643,4.372-0.966,6.767-0.966
		c4.971,0,9.481,0.852,13.533,2.554c4.05,1.705,7.527,4.098,10.426,7.182c2.901,3.086,5.132,6.745,6.699,10.979
		c1.563,4.236,2.347,8.886,2.347,13.948c0,4.696-0.714,9.185-2.141,13.465c-1.428,4.281-3.452,8.08-6.076,11.394
		c-2.624,3.315-5.825,5.962-9.598,7.941c-3.777,1.979-8.058,2.969-12.844,2.969c-4.328,0-8.355-0.669-12.084-2.003
		c-3.729-1.333-6.79-3.612-9.183-6.836h-0.277v38.669h-20.716V312.704z M1720.119,346.262c0,5.065,1.451,9.162,4.351,12.292
		c2.901,3.131,6.974,4.695,12.222,4.695c5.248,0,9.321-1.564,12.222-4.695c2.899-3.129,4.349-7.227,4.349-12.292
		c0-5.062-1.45-9.159-4.349-12.291c-2.901-3.129-6.975-4.695-12.222-4.695c-5.248,0-9.321,1.566-12.222,4.695
		C1721.571,337.103,1720.119,341.2,1720.119,346.262z"/>
	<path style="fill:#322A28;" d="M1849.657,368.22c-3.315,4.236-7.506,7.505-12.569,9.805c-5.063,2.301-10.311,3.453-15.743,3.453
		c-5.157,0-10.012-0.829-14.569-2.486s-8.517-4.026-11.878-7.112c-3.361-3.083-6.006-6.789-7.939-11.117
		c-1.935-4.327-2.901-9.159-2.901-14.501c0-5.338,0.966-10.172,2.901-14.501c1.933-4.326,4.578-8.031,7.939-11.116
		c3.361-3.084,7.321-5.456,11.878-7.112c4.557-1.658,9.412-2.486,14.569-2.486c4.786,0,9.136,0.829,13.052,2.486
		c3.912,1.657,7.225,4.028,9.943,7.112c2.714,3.085,4.809,6.791,6.283,11.116c1.471,4.328,2.21,9.162,2.21,14.501v6.491h-48.059
		c0.828,3.959,2.624,7.112,5.386,9.46c2.761,2.348,6.166,3.521,10.218,3.521c3.406,0,6.283-0.759,8.632-2.278
		c2.347-1.519,4.395-3.474,6.145-5.87L1849.657,368.22z M1832.118,338.667c0.09-3.498-1.059-6.49-3.454-8.977
		c-2.395-2.485-5.479-3.729-9.252-3.729c-2.302,0-4.329,0.37-6.075,1.105c-1.752,0.738-3.246,1.681-4.489,2.831
		c-1.244,1.153-2.21,2.486-2.899,4.005c-0.691,1.519-1.084,3.107-1.174,4.764H1832.118z"/>
	<path style="fill:#322A28;" d="M1865.399,312.704h20.716v10.772h0.275c2.21-4.144,4.834-7.251,7.872-9.322
		c3.04-2.071,6.859-3.107,11.464-3.107c1.196,0,2.393,0.047,3.59,0.138c1.196,0.093,2.301,0.276,3.315,0.553v18.921
		c-1.475-0.46-2.924-0.806-4.351-1.037c-1.428-0.228-2.924-0.345-4.489-0.345c-3.96,0-7.09,0.552-9.391,1.657
		c-2.302,1.105-4.073,2.648-5.317,4.627c-1.242,1.981-2.05,4.35-2.416,7.112c-0.37,2.762-0.552,5.8-0.552,9.114v28.035h-20.716
		V312.704z"/>
</g>
<g>
	<path style="fill:#E5F0F8;" d="M1859.222,1993.045c0,0,563.131-1564.562-470.276-1458.658
		c-442.615,45.359-359.987,320.545-555.47,578.023c-126.71,166.895-370.412,30.365-461.737,176.203
		c-91.325,145.838,15.996,561.676,53.643,704.432H1859.222z"/>
	<g>
		<path style="fill:#40A87B;" d="M1901.757,2004.094c0,0,28.611-114.128,99.931-149.35c71.32-35.222,147.441,12.999,128.112,63.706
			c-16.667,43.723-85.202-10.039-138.526,11.103c-53.324,21.142-61.73,74.541-61.73,74.541H1901.757z"/>
		<path style="fill:none;stroke:#6ADB6A;stroke-width:3.2137;stroke-miterlimit:10;" d="M2116.014,1888.042
			c0,0-76.545-43.622-133.336-3.292c-56.792,40.33-74.764,119.344-74.764,119.344"/>
		
			<line style="fill:none;stroke:#6ADB6A;stroke-width:3.2137;stroke-miterlimit:10;" x1="2103.668" y1="1867.641" x2="2085.859" y2="1875.405"/>
		
			<line style="fill:none;stroke:#6ADB6A;stroke-width:3.2137;stroke-miterlimit:10;" x1="2077.947" y1="1851.004" x2="2042.475" y2="1867.641"/>
		
			<line style="fill:none;stroke:#6ADB6A;stroke-width:3.2137;stroke-miterlimit:10;" x1="2024.653" y1="1851.004" x2="2006.199" y2="1872.804"/>
		
			<line style="fill:none;stroke:#6ADB6A;stroke-width:3.2137;stroke-miterlimit:10;" x1="1989.673" y1="1865.614" x2="1981.377" y2="1885.689"/>
		
			<line style="fill:none;stroke:#6ADB6A;stroke-width:3.2137;stroke-miterlimit:10;" x1="2094.763" y1="1915.821" x2="2067.424" y2="1870.591"/>
		
			<line style="fill:none;stroke:#6ADB6A;stroke-width:3.2137;stroke-miterlimit:10;" x1="2046.465" y1="1909.339" x2="2021.39" y2="1869.069"/>
		
			<line style="fill:none;stroke:#6ADB6A;stroke-width:3.2137;stroke-miterlimit:10;" x1="2003.871" y1="1903.166" x2="1966.175" y2="1898.481"/>
		
			<line style="fill:none;stroke:#6ADB6A;stroke-width:3.2137;stroke-miterlimit:10;" x1="1959.985" y1="1926.006" x2="1938.378" y2="1933.1"/>
	</g>
	<g>
		<path style="fill:#6ADB6A;" d="M1829.586,2000.501c0,0-20.189-382.552,162.532-333.255s-142.532,255.475-142.255,333.255H1829.586
			z"/>
		<path style="fill:none;stroke:#40A87B;stroke-width:3.2137;stroke-miterlimit:10;" d="M1836.97,2000.501
			c0,0,6.38-199.871,136.629-298.7"/>
		
			<line style="fill:none;stroke:#40A87B;stroke-width:3.2137;stroke-miterlimit:10;" x1="1916.472" y1="1759.755" x2="1919.726" y2="1690.833"/>
		
			<line style="fill:none;stroke:#40A87B;stroke-width:3.2137;stroke-miterlimit:10;" x1="2018.662" y1="1731.196" x2="1930.625" y2="1742.671"/>
		
			<line style="fill:none;stroke:#40A87B;stroke-width:3.2137;stroke-miterlimit:10;" x1="1984.425" y1="1790.019" x2="1891.341" y2="1800.864"/>
		
			<line style="fill:none;stroke:#40A87B;stroke-width:3.2137;stroke-miterlimit:10;" x1="1937.883" y1="1848.312" x2="1865.987" y2="1858.472"/>
		
			<line style="fill:none;stroke:#40A87B;stroke-width:3.2137;stroke-miterlimit:10;" x1="1859.09" y1="1793.845" x2="1875.569" y2="1833.881"/>
		
			<line style="fill:none;stroke:#40A87B;stroke-width:3.2137;stroke-miterlimit:10;" x1="1886.168" y1="1728.866" x2="1900.217" y2="1785.233"/>
		
			<line style="fill:none;stroke:#40A87B;stroke-width:3.2137;stroke-miterlimit:10;" x1="1843.706" y1="1860.683" x2="1856.835" y2="1886.851"/>
		
			<line style="fill:none;stroke:#40A87B;stroke-width:3.2137;stroke-miterlimit:10;" x1="1900.217" y1="1902.35" x2="1848.698" y2="1918.594"/>
	</g>
	<g>
		<path style="fill:#40A87B;" d="M443.548,1999.109c0,0-28.856-115.106-100.788-150.63
			c-71.931-35.524-148.704,13.111-129.209,64.252c16.81,44.098,85.932-10.125,139.713,11.198
			c53.781,21.323,62.259,75.18,62.259,75.18H443.548z"/>
		<path style="fill:none;stroke:#6ADB6A;stroke-width:3.2413;stroke-miterlimit:10;" d="M227.455,1882.062
			c0,0,77.201-43.996,134.479-3.32c57.278,40.676,75.405,120.367,75.405,120.367"/>
		
			<line style="fill:none;stroke:#6ADB6A;stroke-width:3.2413;stroke-miterlimit:10;" x1="239.907" y1="1861.486" x2="257.868" y2="1869.316"/>
		
			<line style="fill:none;stroke:#6ADB6A;stroke-width:3.2413;stroke-miterlimit:10;" x1="265.848" y1="1844.707" x2="301.624" y2="1861.486"/>
		
			<line style="fill:none;stroke:#6ADB6A;stroke-width:3.2413;stroke-miterlimit:10;" x1="319.598" y1="1844.707" x2="338.211" y2="1866.693"/>
		
			<line style="fill:none;stroke:#6ADB6A;stroke-width:3.2413;stroke-miterlimit:10;" x1="354.878" y1="1859.441" x2="363.245" y2="1879.689"/>
		
			<line style="fill:none;stroke:#6ADB6A;stroke-width:3.2413;stroke-miterlimit:10;" x1="248.888" y1="1910.079" x2="276.461" y2="1864.462"/>
		
			<line style="fill:none;stroke:#6ADB6A;stroke-width:3.2413;stroke-miterlimit:10;" x1="297.6" y1="1903.541" x2="322.889" y2="1862.927"/>
		
			<line style="fill:none;stroke:#6ADB6A;stroke-width:3.2413;stroke-miterlimit:10;" x1="340.559" y1="1897.316" x2="378.578" y2="1892.591"/>
		
			<line style="fill:none;stroke:#6ADB6A;stroke-width:3.2413;stroke-miterlimit:10;" x1="384.82" y1="1920.351" x2="406.613" y2="1927.506"/>
	</g>
	<g>
		<path style="fill:#6ADB6A;" d="M475.815,1995.484c0,0,20.362-385.83-163.924-336.11s143.754,257.664,143.474,336.11H475.815z"/>
		<path style="fill:none;stroke:#40A87B;stroke-width:3.2413;stroke-miterlimit:10;" d="M468.368,1995.484
			c0,0-6.435-201.584-137.799-301.26"/>
		
			<line style="fill:none;stroke:#40A87B;stroke-width:3.2413;stroke-miterlimit:10;" x1="388.185" y1="1752.675" x2="384.903" y2="1683.163"/>
		
			<line style="fill:none;stroke:#40A87B;stroke-width:3.2413;stroke-miterlimit:10;" x1="285.119" y1="1723.872" x2="373.911" y2="1735.446"/>
		
			<line style="fill:none;stroke:#40A87B;stroke-width:3.2413;stroke-miterlimit:10;" x1="319.65" y1="1783.199" x2="413.531" y2="1794.137"/>
		
			<line style="fill:none;stroke:#40A87B;stroke-width:3.2413;stroke-miterlimit:10;" x1="366.59" y1="1841.991" x2="439.102" y2="1852.239"/>
		
			<line style="fill:none;stroke:#40A87B;stroke-width:3.2413;stroke-miterlimit:10;" x1="446.058" y1="1787.058" x2="429.438" y2="1827.437"/>
		
			<line style="fill:none;stroke:#40A87B;stroke-width:3.2413;stroke-miterlimit:10;" x1="418.748" y1="1721.522" x2="404.579" y2="1778.372"/>
		
			<line style="fill:none;stroke:#40A87B;stroke-width:3.2413;stroke-miterlimit:10;" x1="461.574" y1="1854.468" x2="448.333" y2="1880.86"/>
		
			<line style="fill:none;stroke:#40A87B;stroke-width:3.2413;stroke-miterlimit:10;" x1="404.579" y1="1896.493" x2="456.539" y2="1912.875"/>
	</g>
	<g>
		<polygon style="fill:#E89780;" points="909.459,1052.759 1090.219,973.61 1168.035,1087.55 934.586,1172.16 		"/>
		<path style="fill:#FDAE97;" d="M1594.459,762.345v111.539c0,12.861,2.107,25.612,6.253,37.787
			c14.761,43.34,51.133,149.291,59.2,164.849c10.182,19.636,23.999,48.726,16,86.543c-5.908,27.929-41.566,172.079-59.809,245.553
			c-6.986,28.136-5.163,57.709,5.209,84.78l131.85,493.123h-494.534l-41.374-330.472c-2.937-11.534-10.536-21.328-20.98-27.037
			l-80.171-43.827c-8.141-4.451-14.619-11.422-18.46-19.869l-140.261-308.435l297.529-246.297l219.793,113.452V826.222
			c0-42.107,34.134-76.241,76.241-76.241h31.151C1588.924,749.982,1594.459,755.517,1594.459,762.345z"/>
		<path style="fill:#FDAE97;" d="M1092.455,806.972L1092.455,806.972c28.885-26.004,31.242-70.913,5.238-99.798l-81.125-90.112
			c-26.004-28.885-70.913-31.242-99.798-5.238l0,0c-28.885,26.004-31.242,70.913-5.238,99.798l81.125,90.112
			C1018.661,830.619,1063.57,832.976,1092.455,806.972z"/>
		<g>
			<path style="fill:#FFFFFF;" d="M1039.445,1526.324h404.245c20.731,0,37.537-16.806,37.537-37.537V720.245
				c0-20.731-16.806-37.537-37.537-37.537h-404.245c-20.731,0-37.537,16.806-37.537,37.537v768.543
				C1001.908,1509.518,1018.714,1526.324,1039.445,1526.324z"/>
			
				<rect x="876.166" y="889.391" transform="matrix(-1.836970e-16 1 -1 -1.836970e-16 2330.1475 -152.9882)" style="fill:#93ACBF;" width="730.804" height="398.378"/>
			
				<rect x="882.912" y="896.135" transform="matrix(-1.836970e-16 1 -1 -1.836970e-16 2330.1465 -152.9893)" style="fill:#FFFFFF;" width="717.313" height="384.886"/>
			<path style="fill:#93ACBF;" d="M1195.369,1504.673h92.399c7.941,0,14.437-6.497,14.437-14.437l0,0
				c0-7.941-6.497-14.437-14.437-14.437h-92.399c-7.941,0-14.437,6.497-14.437,14.437l0,0
				C1180.931,1498.176,1187.428,1504.673,1195.369,1504.673z"/>
			<g>
				<path style="fill:#586773;" d="M1213.375,707.091h76.357c2.647,0,4.813-2.166,4.813-4.813l0,0c0-2.647-2.166-4.812-4.813-4.812
					h-76.357c-2.647,0-4.812,2.166-4.812,4.812l0,0C1208.563,704.925,1210.728,707.091,1213.375,707.091z"/>
				<path style="fill:#586773;" d="M1193.403,707.091L1193.403,707.091c2.647,0,4.813-2.166,4.813-4.813l0,0
					c0-2.647-2.166-4.812-4.813-4.812l0,0c-2.647,0-4.813,2.166-4.813,4.812l0,0
					C1188.591,704.925,1190.757,707.091,1193.403,707.091z"/>
			</g>
			<path style="fill:#BBDBF3;" d="M1331.067,776.167c4.701,4.811,12.102,5.313,17.435,1.565l12.861,13.135l3.095-3.024
				l-12.859-13.133c3.887-5.243,3.546-12.65-1.163-17.469c-5.222-5.345-13.802-5.468-19.147-0.245
				C1325.945,762.219,1325.845,770.822,1331.067,776.167z M1348.332,759.298c4.067,4.162,3.989,10.896-0.173,14.963
				c-4.186,4.09-10.896,3.989-14.963-0.174c-4.09-4.186-4.013-10.872,0.174-14.962
				C1337.531,755.057,1344.242,755.112,1348.332,759.298z"/>
			<g>
				<rect x="1074.214" y="752.68" style="fill:#BBDBF3;" width="53.899" height="7.668"/>
				<rect x="1074.214" y="766.222" style="fill:#BBDBF3;" width="53.899" height="7.668"/>
				<rect x="1074.214" y="779.764" style="fill:#BBDBF3;" width="53.899" height="7.668"/>
			</g>
			<rect x="1395.685" y="753.155" style="fill:#BBDBF3;" width="20.735" height="20.735"/>
			<g>
				<polyline style="fill:none;stroke:#BBDBF3;stroke-width:3.5351;stroke-linejoin:round;" points="1411.714,1082.109 
					1411.714,1090.947 1402.877,1090.947 				"/>
				
					<line style="fill:none;stroke:#BBDBF3;stroke-width:3.5351;stroke-linejoin:round;stroke-dasharray:16.9799,16.9799;" x1="1385.897" y1="1090.947" x2="1088.749" y2="1090.947"/>
				<polyline style="fill:none;stroke:#BBDBF3;stroke-width:3.5351;stroke-linejoin:round;" points="1080.259,1090.947 
					1071.421,1090.947 1071.421,1082.109 				"/>
				
					<line style="fill:none;stroke:#BBDBF3;stroke-width:3.5351;stroke-linejoin:round;stroke-dasharray:17.4637,17.4637;" x1="1071.421" y1="1064.646" x2="1071.421" y2="828.885"/>
				<polyline style="fill:none;stroke:#BBDBF3;stroke-width:3.5351;stroke-linejoin:round;" points="1071.421,820.153 
					1071.421,811.315 1080.259,811.315 				"/>
				
					<line style="fill:none;stroke:#BBDBF3;stroke-width:3.5351;stroke-linejoin:round;stroke-dasharray:16.9799,16.9799;" x1="1097.239" y1="811.315" x2="1394.387" y2="811.315"/>
				<polyline style="fill:none;stroke:#BBDBF3;stroke-width:3.5351;stroke-linejoin:round;" points="1402.877,811.315 
					1411.714,811.315 1411.714,820.153 				"/>
				
					<line style="fill:none;stroke:#BBDBF3;stroke-width:3.5351;stroke-linejoin:round;stroke-dasharray:17.4637,17.4637;" x1="1411.714" y1="837.617" x2="1411.714" y2="1073.377"/>
			</g>
			<rect x="1176.018" y="1400.578" style="fill:#E5F0F8;" width="30.792" height="30.792"/>
			<rect x="1075.711" y="1400.578" style="fill:#E5F0F8;" width="30.792" height="30.792"/>
			
				<rect x="1376.632" y="1400.578" transform="matrix(-1 -1.224647e-16 1.224647e-16 -1 2784.0574 2831.9482)" style="fill:#E5F0F8;" width="30.792" height="30.792"/>
			
				<rect x="1276.325" y="1400.578" transform="matrix(-1 -1.224647e-16 1.224647e-16 -1 2583.4431 2831.9482)" style="fill:#E5F0F8;" width="30.792" height="30.792"/>
			<rect x="1070.311" y="1114.972" style="fill:#E5F0F8;" width="140.368" height="12.869"/>
			<rect x="1070.311" y="1141.934" style="fill:#E5F0F8;" width="177.547" height="12.869"/>
			<path style="fill:none;stroke:#E5F0F8;stroke-width:3.5351;stroke-miterlimit:10;" d="M1391.799,1154.803h-88.992
				c-10.954,0-19.916-8.962-19.916-19.915l0,0c0-10.954,8.962-19.916,19.916-19.916h88.992c10.954,0,19.916,8.962,19.916,19.916l0,0
				C1411.715,1145.841,1402.753,1154.803,1391.799,1154.803z"/>
			<circle style="fill:#6ADB6A;" cx="1390.981" cy="1134.888" r="20.734"/>
			<rect x="1070.311" y="1170.74" style="fill:#E5F0F8;" width="140.368" height="12.869"/>
			<rect x="1070.311" y="1197.702" style="fill:#E5F0F8;" width="177.547" height="12.869"/>
			<path style="fill:none;stroke:#E5F0F8;stroke-width:3.5351;stroke-miterlimit:10;" d="M1391.799,1210.571h-88.992
				c-10.954,0-19.916-8.962-19.916-19.915v0c0-10.953,8.962-19.916,19.916-19.916h88.992c10.954,0,19.916,8.962,19.916,19.916v0
				C1411.715,1201.609,1402.753,1210.571,1391.799,1210.571z"/>
			<circle style="fill:#F74242;" cx="1303.626" cy="1190.655" r="20.734"/>
			<rect x="1070.866" y="1305.066" style="fill:#E5F0F8;" width="341.403" height="67.605"/>
			<polygon style="fill:#FFFFFF;" points="1397.895,1338.869 1359.789,1316.868 1359.789,1360.87 			"/>
			<rect x="1070.866" y="1229.381" style="fill:#E5F0F8;" width="341.403" height="67.605"/>
			<polygon style="fill:#FFFFFF;" points="1397.895,1263.183 1359.789,1241.183 1359.789,1285.184 			"/>
		</g>
		<path style="fill:#FDAE97;" d="M886.184,1259.676c0,7.221,1.229,14.558,3.841,21.703l39.219,107.899
			c11.984,33.073,48.898,50.281,81.971,38.258c33.073-12.023,50.281-48.898,38.258-81.971l-9.257-25.505l-29.961-82.394
			c-12.023-33.073-48.898-50.281-81.971-38.258c-7.221,2.612-13.713,6.453-19.283,11.139
			C894.596,1222.686,886.184,1240.816,886.184,1259.676z"/>
		<path style="fill:#E89780;" d="M909.001,1210.547l29.308,80.704c12.253,33.726,49.897,51.318,83.661,39.026
			c6.76-2.458,12.906-5.954,18.246-10.217l-29.961-82.394c-12.023-33.073-48.898-50.281-81.971-38.258
			C921.062,1202.02,914.57,1205.861,909.001,1210.547z"/>
		<path style="fill:#FDAE97;" d="M881.92,1104.838c0,7.375,1.268,14.865,3.918,22.163l45.096,124.07
			c12.253,33.726,49.897,51.318,83.661,39.065c33.726-12.292,51.318-49.935,39.065-83.661l-45.096-124.07
			c-3.188-8.835-8.143-16.517-14.251-22.894c-17.401-18.015-44.443-25.237-69.41-16.171c-18.092,6.568-31.575,20.435-38.258,37.106
			C883.572,1088.129,881.92,1096.426,881.92,1104.838z"/>
		<path style="fill:#FDAE97;" d="M1485.371,1566.69c0,0-116.361,5.333-132.845-152.724s106.664-284.115,150.3-308.357l95.028,42.666
			l-29.09,390.779L1485.371,1566.69z"/>
		<path style="fill:#E89780;" d="M886.184,1088.014c-0.499,7.874,5.531,14.596,13.367,15.019l43.406,2.19
			c25.39,1.306,47.554-17.132,50.896-42.33l0.461-3.38c-17.401-18.015-44.443-25.237-69.41-16.171
			c-18.092,6.568-31.575,20.435-38.258,37.106L886.184,1088.014z"/>
		<path style="fill:#FDAE97;" d="M1004.612,846.707l-79.157,40.391c-18.077,9.224-29.948,27.299-31.231,47.553l-8.029,126.73
			c-0.497,7.844,5.511,14.581,13.36,14.982l43.4,2.22c25.404,1.299,47.549-17.125,50.893-42.342l10.765-81.174V846.707z"/>
		<path style="fill:none;stroke:#E89780;stroke-width:3.8412;stroke-miterlimit:10;" d="M1485.371,1566.69
			c0,0-116.361,5.333-132.845-152.724s106.664-284.115,150.3-308.357"/>
		<path style="fill:none;stroke:#E89780;stroke-width:3.8412;stroke-miterlimit:10;" d="M1594.459,855.788h-23.48
			c-12.55,0-22.724-10.174-22.724-22.723V750.23"/>
		<path style="fill:none;stroke:#E89780;stroke-width:3.8412;stroke-miterlimit:10;" d="M1053.999,1249.791l-22.558-56.371
			c-5.937-14.837-22.636-22.217-37.604-16.62l-37.452,14.003c-14.806,5.536-22.588,21.785-17.62,36.79l18.618,56.237"/>
		<path style="fill:none;stroke:#E89780;stroke-width:3.8412;stroke-miterlimit:10;" d="M1049.125,1384.755l-22.558-56.371
			c-5.937-14.837-22.636-22.217-37.605-16.62l-37.452,14.003c-14.806,5.536-22.587,21.785-17.62,36.79l18.618,56.237"/>
		<path style="fill:none;stroke:#E89780;stroke-width:3.8412;stroke-miterlimit:10;" d="M948.718,1078.583l7.346-75.666
			c0.721-7.431-4.856-13.982-12.307-14.454l-52.73-3.343"/>
	</g>
	<path style="fill:#0775EF;" d="M2041.866,2025.417H338.391c-9.625,0-17.427-7.802-17.427-17.427v-3.719
		c0-9.625,7.802-17.427,17.427-17.427h1703.475c9.625,0,17.427,7.802,17.427,17.427v3.719
		C2059.293,2017.614,2051.49,2025.417,2041.866,2025.417z"/>
	<g>
		<path style="fill:#BBDBF3;" d="M1919.069,1953.936l3.86-0.502c3.368,24.207,0.422,33.411,0.422,33.411s-5.203-8.143-8.142-32.406
			L1919.069,1953.936z"/>
		<path style="fill:#586773;" d="M1639.022,1954.151l-3.834-0.668c-4.41,24.039-1.864,33.361-1.864,33.361s5.55-7.911,9.533-32.024
			L1639.022,1954.151z"/>
		<polygon style="fill:#93ACBF;" points="1909.269,1959.881 1928.964,1957.318 1930.131,1905.858 1838.433,1201.203 
			1811.005,1204.773 		"/>
		<path style="fill:#F9ECB8;" d="M1890.053,1891.44l0.003,0.025c0.116,0.498,0.232,0.996,0.399,1.487
			c1.175-0.435,2.509,0.161,2.995,1.329c0.517,1.215-0.025,2.569-1.187,3.104c0.239,0.456,0.5,0.884,0.786,1.309
			c1.035-0.725,2.478-0.476,3.25,0.526s0.625,2.433-0.343,3.277c0.33,0.367,0.71,0.728,1.091,1.089
			c0.797-0.976,2.238-1.138,3.264-0.348c1.026,0.79,1.239,2.225,0.502,3.27c0.446,0.275,0.889,0.526,1.333,0.776
			c0.568-1.152,1.91-1.685,3.077-1.196c1.217,0.483,1.78,1.846,1.344,3.032c0.481,0.143,0.986,0.282,1.488,0.396
			c0.246-1.263,1.415-2.134,2.672-1.938c1.254,0.17,2.171,1.308,2.077,2.552c0.492,0.039,1.004,0.023,1.515,0.008l0.025-0.003
			c-0.114-1.268,0.793-2.386,2.054-2.551c1.287-0.167,2.449,0.682,2.663,1.937c0.498-0.116,0.996-0.232,1.487-0.399
			c-0.41-1.178,0.186-2.513,1.354-2.998c1.165-0.511,2.518,0.031,3.079,1.19c0.456-0.239,0.909-0.503,1.337-0.764
			c-0.724-1.034-0.53-2.496,0.523-3.275c1.003-0.772,2.436-0.599,3.28,0.368c0.364-0.355,0.729-0.711,1.089-1.091
			c-0.979-0.822-1.141-2.263-0.351-3.289c0.79-1.026,2.25-1.242,3.273-0.477c0.25-0.443,0.526-0.889,0.773-1.358
			c-1.173-0.54-1.682-1.885-1.196-3.077c0.49-1.167,1.821-1.776,3.007-1.34c0.168-0.484,0.311-0.964,0.425-1.466
			c-1.26-0.221-2.131-1.39-1.967-2.694c0.196-1.257,1.333-2.175,2.58-2.055c0.035-0.518,0.02-1.029,0.005-1.54l-0.003-0.025
			c-1.268,0.114-2.386-0.793-2.551-2.054c-0.164-1.261,0.682-2.449,1.937-2.664c-0.116-0.498-0.232-0.996-0.399-1.487
			c-1.175,0.435-2.51-0.161-3.023-1.351c-0.489-1.193,0.053-2.547,1.215-3.083c-0.239-0.456-0.503-0.909-0.789-1.334
			c-1.035,0.725-2.474,0.502-3.246-0.501c-0.775-1.028-0.628-2.458,0.368-3.28c-0.359-0.39-0.739-0.75-1.12-1.111
			c-0.797,0.976-2.238,1.138-3.264,0.348c-1.023-0.765-1.236-2.199-0.499-3.244c-0.446-0.276-0.889-0.526-1.332-0.776
			c-0.568,1.151-1.913,1.66-3.08,1.17c-1.192-0.486-1.773-1.796-1.34-3.007c-0.484-0.168-0.989-0.307-1.488-0.396
			c-0.249,1.238-1.419,2.109-2.672,1.938c-1.257-0.195-2.171-1.308-2.08-2.577c-0.518-0.035-1.029-0.02-1.54-0.005
			c0.114,1.268-0.789,2.411-2.076,2.579c-1.261,0.164-2.427-0.71-2.641-1.965l-0.025,0.003c-0.498,0.116-0.996,0.232-1.462,0.396
			c0.413,1.203-0.186,2.513-1.351,3.023c-1.168,0.486-2.521-0.057-3.079-1.19c-0.46,0.214-0.913,0.478-1.337,0.764
			c0.728,1.06,0.502,2.474-0.526,3.25c-1.003,0.772-2.433,0.624-3.277-0.343c-0.364,0.355-0.729,0.711-1.089,1.091
			c0.979,0.822,1.141,2.263,0.348,3.264c-0.79,1.026-2.225,1.239-3.245,0.499c-0.275,0.446-0.526,0.889-0.772,1.358
			c1.151,0.568,1.66,1.913,1.17,3.08c-0.49,1.167-1.824,1.751-3.01,1.315c-0.168,0.484-0.282,0.986-0.422,1.492
			c1.26,0.221,2.131,1.39,1.938,2.672c-0.167,1.279-1.305,2.196-2.552,2.077c-0.035,0.518-0.02,1.029-0.005,1.54
			c1.268-0.114,2.39,0.818,2.554,2.079C1892.157,1890.063,1891.308,1891.225,1890.053,1891.44z"/>
		<path style="fill:#F9E181;" d="M1906.965,1886.841c0.477,3.663,3.833,6.247,7.496,5.77c3.663-0.477,6.247-3.833,5.77-7.496
			c-0.477-3.663-3.833-6.247-7.496-5.77C1909.071,1879.821,1906.488,1883.177,1906.965,1886.841z"/>
		
			<rect x="1873.882" y="1726.185" transform="matrix(0.9916 -0.129 0.129 0.9916 -208.1029 256.6747)" style="fill:#586773;" width="6.022" height="16.464"/>
		<polygon style="fill:#93ACBF;" points="1648.556,1960.514 1628.99,1957.103 1630.045,1905.641 1752.072,1205.601 
			1779.32,1210.351 		"/>
		<path style="fill:#F9ECB8;" d="M1670.709,1892.966l-0.004,0.025c-0.138,0.492-0.275,0.985-0.463,1.469
			c-1.155-0.485-2.514,0.052-3.049,1.199c-0.569,1.192-0.086,2.567,1.052,3.153c-0.259,0.446-0.538,0.862-0.842,1.274
			c-1.002-0.769-2.455-0.583-3.269,0.386c-0.814,0.968-0.729,2.403,0.201,3.289c-0.346,0.353-0.741,0.697-1.137,1.041
			c-0.754-1.01-2.187-1.233-3.246-0.489c-1.059,0.745-1.334,2.169-0.643,3.245c-0.458,0.256-0.911,0.487-1.365,0.718
			c-0.518-1.175-1.835-1.766-3.022-1.327c-1.237,0.43-1.858,1.768-1.473,2.971c-0.486,0.122-0.997,0.239-1.504,0.332
			c-0.191-1.273-1.322-2.193-2.586-2.052c-1.26,0.116-2.226,1.213-2.185,2.46c-0.494,0.017-1.004-0.02-1.514-0.057l-0.025-0.004
			c0.168-1.262-0.689-2.418-1.942-2.637c-1.278-0.223-2.476,0.575-2.745,1.82c-0.492-0.137-0.985-0.275-1.469-0.463
			c0.46-1.159-0.078-2.518-1.224-3.054c-1.142-0.561-2.517-0.077-3.128,1.056c-0.446-0.259-0.887-0.542-1.303-0.821
			c0.769-1.002,0.637-2.471-0.381-3.294c-0.968-0.814-2.408-0.704-3.293,0.226c-0.349-0.371-0.697-0.741-1.041-1.137
			c1.014-0.779,1.238-2.212,0.493-3.271c-0.745-1.059-2.194-1.338-3.249-0.618c-0.231-0.454-0.487-0.911-0.713-1.39
			c1.196-0.489,1.762-1.811,1.327-3.022c-0.439-1.187-1.743-1.853-2.946-1.469c-0.147-0.49-0.269-0.977-0.361-1.483
			c1.269-0.166,2.189-1.297,2.081-2.607c-0.141-1.264-1.238-2.23-2.489-2.164c-0.013-0.519,0.024-1.029,0.062-1.539l0.004-0.025
			c1.262,0.168,2.418-0.689,2.637-1.942c0.218-1.253-0.575-2.476-1.82-2.745c0.138-0.493,0.275-0.985,0.463-1.469
			c1.155,0.485,2.514-0.052,3.079-1.219c0.54-1.171,0.057-2.547-1.081-3.132c0.258-0.446,0.542-0.887,0.846-1.299
			c1.002,0.769,2.45,0.608,3.265-0.361c0.819-0.993,0.733-2.429-0.226-3.293c0.375-0.374,0.771-0.718,1.166-1.062
			c0.754,1.009,2.187,1.233,3.246,0.488c1.055-0.72,1.329-2.144,0.639-3.22c0.458-0.256,0.911-0.487,1.365-0.718
			c0.518,1.175,1.84,1.741,3.027,1.302c1.212-0.434,1.849-1.718,1.469-2.946c0.49-0.147,1.002-0.264,1.504-0.332
			c0.196,1.248,1.326,2.168,2.586,2.052c1.264-0.141,2.226-1.213,2.189-2.485c0.519-0.013,1.029,0.024,1.538,0.062
			c-0.168,1.262,0.685,2.443,1.963,2.666c1.253,0.219,2.455-0.605,2.724-1.849l0.025,0.004c0.492,0.137,0.985,0.275,1.444,0.458
			c-0.465,1.184,0.077,2.518,1.219,3.079c1.146,0.535,2.521,0.052,3.128-1.056c0.45,0.233,0.891,0.517,1.303,0.821
			c-0.773,1.027-0.608,2.45,0.386,3.269c0.968,0.814,2.404,0.729,3.289-0.201c0.349,0.371,0.697,0.741,1.041,1.137
			c-1.014,0.779-1.238,2.212-0.488,3.246c0.745,1.059,2.169,1.333,3.22,0.639c0.256,0.458,0.487,0.911,0.713,1.39
			c-1.175,0.518-1.741,1.84-1.302,3.027s1.747,1.828,2.95,1.444c0.147,0.49,0.239,0.997,0.357,1.508
			c-1.269,0.166-2.189,1.297-2.052,2.586c0.112,1.285,1.209,2.251,2.46,2.185c0.013,0.519-0.024,1.029-0.062,1.539
			c-1.262-0.168-2.423,0.714-2.641,1.967C1668.666,1891.5,1669.464,1892.698,1670.709,1892.966z"/>
		
			<ellipse transform="matrix(0.3969 -0.9178 0.9178 0.3969 -738.0121 2649.7473)" style="fill:#F9E181;" cx="1647.421" cy="1886.492" rx="6.689" ry="6.689"/>
		
			<rect x="1920.472" y="1698.895" transform="matrix(0.9916 -0.129 0.129 0.9916 -206.9104 262.7732)" style="fill:#93ACBF;" width="8.061" height="58.654"/>
		
			<rect x="1907.251" y="1721.369" transform="matrix(0.9916 -0.129 0.129 0.9916 -207.1931 261.4409)" style="fill:#586773;" width="13.311" height="16.464"/>
		<path style="fill:#586773;" d="M1890.516,1708.604L1890.516,1708.604c-1.614,0.21-3.105-0.938-3.316-2.552l-3.585-27.551
			c-0.21-1.614,0.938-3.106,2.552-3.316l0,0c1.614-0.21,3.105,0.938,3.315,2.552l3.585,27.551
			C1893.278,1706.902,1892.13,1708.395,1890.516,1708.604z"/>
		<polygon style="fill:#322A28;" points="1818.234,1135.587 1771.471,1135.587 1774.015,1099.314 1815.69,1099.314 		"/>
		<path style="fill:#586773;" d="M1814.961,1107.585h-40.216c-1.926,0-3.465-1.603-3.385-3.528l4.512-109.494
			c0.241-5.845,5.05-10.46,10.9-10.46h16.163c5.85,0,10.659,4.615,10.9,10.46l4.512,109.494
			C1818.426,1105.982,1816.887,1107.585,1814.961,1107.585z"/>
		<path style="fill:#586773;" d="M1794.853,1128.851c-32.929-1.115-48.107,10.891-48.107,10.891v80.556
			c0,0.879,0.15,1.744,0.449,2.57c1.939,5.361,9.649,26.974,12.929,40.613c3.691,15.349,4.155,31.284,4.16,38.166
			c0.002,2.397,1.259,4.656,3.38,5.772c9.528,5.014,20.17,5.798,27.189,5.798s17.66-0.784,27.188-5.798
			c2.122-1.116,3.378-3.375,3.38-5.772c0.006-6.882,0.469-22.817,4.16-38.166c3.28-13.639,10.99-35.252,12.929-40.613
			c0.299-0.826,0.448-1.691,0.448-2.57v-80.556C1842.959,1139.742,1827.781,1127.737,1794.853,1128.851z"/>
		<path style="fill:none;stroke:#93ACBF;stroke-width:2.544;stroke-miterlimit:10;" d="M1794.853,1306.006
			c-9.309,0-17.164-1.59-23.358-4.725c-0.025-8.249-0.639-24.011-4.361-39.486c-3.327-13.837-10.912-35.171-13.158-41.38
			l-0.017-76.677c5.026-2.701,17.036-7.749,36.614-7.749c1.312,0,2.658,0.022,4.036,0.07c0.082,0.002,0.407,0.002,0.489,0
			c1.379-0.047,2.723-0.07,4.036-0.07c19.548,0,31.555,5.035,36.613,7.755v76.554c-2.258,6.314-9.838,27.615-13.174,41.498
			c-3.727,15.489-4.338,31.244-4.36,39.484C1812.016,1304.417,1804.162,1306.006,1794.853,1306.006z"/>
		<g>
			<path style="fill:#F9ECB8;" d="M1759.714,1194.522c-1.323-5.983,1.801-11.9,7.181-14.297c0.781-0.347,1.594-0.623,2.458-0.813
				c0.863-0.191,1.731-0.287,2.571-0.298c5.892-0.079,11.216,3.954,12.539,9.937c1.319,5.968-1.805,11.885-7.181,14.297
				c-0.766,0.344-1.594,0.623-2.457,0.813c-0.863,0.191-1.717,0.284-2.571,0.298
				C1766.364,1204.554,1761.034,1200.49,1759.714,1194.522z"/>
			<path style="fill:#F9E181;" d="M1772.253,1204.459l-5.358-24.234c0.781-0.347,1.594-0.623,2.458-0.813
				c0.863-0.191,1.731-0.287,2.571-0.298l5.358,24.234c-0.766,0.344-1.594,0.623-2.457,0.813
				C1773.961,1204.352,1773.108,1204.445,1772.253,1204.459z"/>
		</g>
		<g>
			<path style="fill:#F9ECB8;" d="M1829.991,1194.522c1.323-5.983-1.801-11.9-7.181-14.297c-0.781-0.347-1.594-0.623-2.458-0.813
				c-0.863-0.191-1.732-0.287-2.571-0.298c-5.892-0.079-11.216,3.954-12.539,9.937c-1.319,5.968,1.805,11.885,7.181,14.297
				c0.766,0.344,1.594,0.623,2.457,0.813c0.863,0.191,1.717,0.284,2.571,0.298
				C1823.341,1204.554,1828.672,1200.49,1829.991,1194.522z"/>
			<path style="fill:#F9E181;" d="M1817.452,1204.459l5.358-24.234c-0.781-0.347-1.594-0.623-2.458-0.813
				c-0.863-0.191-1.732-0.287-2.571-0.298l-5.358,24.234c0.766,0.344,1.594,0.623,2.457,0.813
				C1815.744,1204.352,1816.598,1204.445,1817.452,1204.459z"/>
		</g>
	</g>
	<g>
		<g>
			<polygon style="fill:#FDAE97;" points="767.184,1363.851 822.435,1362.913 819.54,1304.899 818.159,1277.156 818.08,1275.774 
				774.85,1257.6 773.442,1277.208 772.399,1291.496 			"/>
			<path style="fill:#FDAE97;" d="M507.2,1386.983c-1.132,2.178,8.951,13.121,18.438,18.41c8.034,4.491,27.671,12.85,33.476,15.273
				l14.954-25.176c-2.911-2.276-6.037-4.89-8.439-7.466c-5.962-6.294-24.121-21.557-26.313-18.903
				c-2.193,2.612,8.161,15.596,6.335,15.95c-1.827,0.354-11.63-7.399-15.53-11.029c-3.943-3.629-11.076-12.765-14.135-12.188
				c-3.102,0.577-3.407,5.175-3.407,5.175s-2.327-3.811-4.44-1.923c-2.113,1.888,0.024,8.722,0.024,8.722s-1.038-2.247-2.847,0.405
				c-1.809,2.694,4.855,11.749,4.855,11.749S508.289,1384.761,507.2,1386.983z"/>
			<path style="fill:#088CFC;" d="M875.235,1543.43l23.234,192.329c0.73,4.862,0.707,9.916-0.285,15.017
				c-4.668,24.015-27.92,39.698-51.935,35.03c-24.015-4.668-33.205-23.211-37.519-50.785
				c-8.28-52.933-37.198-211.749-37.198-211.749L875.235,1543.43z"/>
			<polygon style="fill:#088CFC;" points="724.585,1533.75 809.931,1539.476 809.506,1634.03 799.377,1649.01 789.986,1740.164 
				703.596,1733.258 			"/>
			<path style="fill:#F74242;" d="M927.062,1507.03l-0.321,0.135c-14.103,5.915-30.481-0.784-36.396-14.887l-48.194-114.909
				c-5.915-14.103,0.784-30.481,14.887-36.396l0.321-0.135c14.103-5.915,30.481,0.784,36.396,14.887l48.194,114.909
				C947.864,1484.737,941.164,1501.115,927.062,1507.03z"/>
			<path style="fill:#F74242;" d="M693.102,1486.634c-8.565,13.466-25.378,18.324-37.24,10.732l-60.248-40.56l-21.302-14.405
				l-22.234-14.961l12.208-22.974l8.672-16.304l0.827-1.594l24.523,13.404l22.496,12.259l66.213,36.113
				C698.878,1455.935,701.667,1473.167,693.102,1486.634z"/>
			<path style="fill:#FDAE97;" d="M794.093,1339.59c-20.272,0.446-28.906-9.63-31.51-13.589l7.581-3.425l50.132-2.522l6.023,1.928
				C823.775,1326.714,814.803,1339.134,794.093,1339.59z"/>
			<path style="fill:#F74242;" d="M722.149,1465.718l-1.2,82.904h156.058l-1.85-209.01l-53.553-19.351c-0.6,1.1-1.25,2.25-2.05,3.45
				l-0.2,0.25c-2.9,3.7-8.45,7.2-24.001,7.55c-12.951,0.3-19.301-1.5-22.901-3.85l-0.05-0.05c-1.95-1.3-3.1-2.85-4-4.25
				l-50.553,11.151l3.401,105.505L722.149,1465.718z"/>
			<polygon style="fill:#EA9D85;" points="819.965,1315.245 788.772,1295.732 819.354,1294.581 			"/>
			<path style="fill:#088CFC;" d="M914.649,1930.974l-80.278-0.056l-24.198-186.815c-2.526-24.345,15.122-46.146,39.436-48.709
				c24.346-2.526,46.112,15.12,48.675,39.434c0.23,2.113,0.258,4.178,0.18,6.27l13.975,163.971L914.649,1930.974L914.649,1930.974z"
				/>
			<path style="fill:#F74242;" d="M656.915,1497.698L656.915,1497.698c13.837,7.053,30.928,1.502,37.981-12.334l56.679-111.197
				c7.053-13.837,1.502-30.928-12.334-37.981h0c-13.837-7.053-30.928-1.502-37.981,12.335l-56.679,111.197
				C637.528,1473.554,643.078,1490.646,656.915,1497.698z"/>
			<path style="fill:#D6EAFF;" d="M772.452,1327.661l22.901,36.202l24.001-39.902c-2.9,3.7-8.45,7.2-24.001,7.55
				C782.402,1331.811,776.052,1330.011,772.452,1327.661z"/>
			<path style="fill:#FDAE97;" d="M887.841,1659.885c2.4,0.518,10.301-12.091,12.904-22.636c2.216-8.933,5.108-30.078,5.917-36.317
				l-28.226-7.795c-1.429,3.407-3.127,7.111-4.98,10.108c-4.501,7.41-14.443,28.947-11.305,30.362
				c3.098,1.427,12.895-11.981,13.718-10.312c0.823,1.669-4.075,13.169-6.549,17.887c-2.463,4.759-9.397,14.047-8.035,16.846
				c1.374,2.841,5.889,1.924,5.889,1.924s-3.064,3.249-0.686,4.79c2.378,1.541,8.408-2.321,8.408-2.321s-1.894,1.594,1.141,2.64
				c3.076,1.036,10.055-7.778,10.055-7.778S885.412,1659.419,887.841,1659.885z"/>
			<path style="fill:#088CFC;" d="M790.294,1736.804l-20.615,194.17h-78.867l12.646-195.233c-0.103-2.058,0.48-4.356,0.652-6.482
				c2.161-24.384,21.538-42.596,45.922-40.469C774.381,1690.95,792.42,1712.42,790.294,1736.804z"/>
			<path style="fill:#F74242;" d="M867.961,1594.473l4.24-28.161l3.869-25.487l10.256-68.018
				c3.015-13.755,18.215-22.245,33.826-18.865c15.592,3.409,25.905,17.47,22.918,31.244l-19.131,67.944l-6.925,24.698l-7.179,25.517
				L867.961,1594.473z"/>
			<path style="fill:#FDAE97;" d="M815.249,1229.389c0,0,4.92,17.904,8.411,30.604l2.885,10.497
				c2.279,8.294,3.335,21.236-5.217,26.647c-8.522,5.403-22.413,5.041-34.015-2.205c-11.611-7.276-43.487-45.651-20.363-69.418
				C790.105,1201.738,813.429,1225.281,815.249,1229.389z"/>
			<path style="fill:#322A28;" d="M772.01,1292.556c0,0,15.002-23.067,6.827-36.2c-8.175-13.133,0-16.431,5.737-15.427
				c5.737,1.004,15.713,0.717,19.76-0.86c0,0-12.159,0.287-17.322-2.725c0,0,23.968,1.964,29.195-4.468l1.285,4.676
				c0,0,8.637-20.341-4.35-25.074c-12.988-4.733-18.384,0.628-18.384,0.628s4.132-8.318-1.806-9.896
				c-5.938-1.578-11.388,10.47-11.388,10.47s-8.318-10.326-16.924-0.143c-8.605,10.183-5.02,19.505-5.02,19.505
				s-10.04,8.318-5.163,21.37C759.332,1267.462,770.92,1279.787,772.01,1292.556z"/>
			<g>
				<path style="fill:#FDAE97;" d="M779.057,1275.826c4.631,4.181,6.477,7.512,3.195,11.148c-3.282,3.636-10.122,4.653-14.754,0.472
					c-4.631-4.181-5.725-10.518-2.443-14.154C768.337,1269.656,774.426,1271.646,779.057,1275.826z"/>
			</g>
			<path style="fill:#332B27;" d="M796.857,1259.493c0.529,1.924,1.966,3.206,3.211,2.864c1.245-0.342,1.825-2.179,1.296-4.103
				c-0.529-1.924-1.966-3.206-3.211-2.864C796.908,1255.732,796.328,1257.569,796.857,1259.493z"/>
			<path style="fill:#332B27;" d="M820.127,1253.098c0.529,1.924-0.052,3.761-1.296,4.103c-1.245,0.342-2.682-0.94-3.211-2.864
				s0.052-3.761,1.296-4.103C818.16,1249.892,819.598,1251.174,820.127,1253.098z"/>
			<path style="fill:#E89780;" d="M803.929,1271.212c-0.106,1.93-3.303,3.324-7.141,3.113s-6.863-1.947-6.757-3.877
				c0.106-1.93,3.303-3.324,7.141-3.113C801.011,1267.546,804.036,1269.281,803.929,1271.212z"/>
			<path style="fill:#E89780;" d="M823.66,1259.993l1.876,6.825c-2.784,1.127-5.359,0.979-6.17-0.411
				C818.45,1264.749,820.362,1261.886,823.66,1259.993z"/>
			
				<path style="fill:none;stroke:#EA9D85;stroke-width:1.4413;stroke-linecap:round;stroke-linejoin:round;stroke-miterlimit:10;" d="
				M770.995,1282.604c2.979-1.457,5.725-1.573,5.725-1.573c-4.24-4.471-8.162-2.737-8.162-2.737"/>
			<path style="fill:none;stroke:#332B27;stroke-width:0.9219;stroke-miterlimit:10;" d="M804.308,1280.945
				c0,0,5.138,5.597,13.184,1.742"/>
			<path style="fill:none;stroke:#332B27;stroke-width:0.9219;stroke-miterlimit:10;" d="M806.793,1258.194l7.622,11.118
				c0.772,1.126,0.678,2.634-0.229,3.655l-1.404,1.582l-1.438,1.621"/>
			<path style="fill:none;stroke:#332B27;stroke-width:0.9219;stroke-miterlimit:10;" d="M792.951,1256.356c0,0,3-5.203,8.174-5.214
				"/>
			<path style="fill:none;stroke:#332B27;stroke-width:0.9219;stroke-miterlimit:10;" d="M820.576,1246.55
				c0,0-4.148-2.225-8.093,1.123"/>
			<polygon style="fill:#FFFFFF;" points="770.287,1320.806 795.348,1331.529 782.179,1347.527 767.184,1323.885 			"/>
			<polygon style="fill:#FFFFFF;" points="820.216,1318.433 795.348,1331.529 807.208,1346.853 822.435,1320.587 			"/>
			<polygon style="fill:#FDAE97;" points="758.299,1961.32 760.413,1930.974 701.323,1930.974 699.016,1961.32 			"/>
			<polygon style="fill:#EA9D85;" points="700.278,1944.722 760.413,1930.974 701.323,1930.974 			"/>
			<polygon style="fill:#FDAE97;" points="846.007,1961.32 843.74,1930.925 904.264,1930.974 905.29,1961.32 			"/>
			<polygon style="fill:#EA9D85;" points="845.005,1947.878 904.264,1930.974 843.74,1930.925 			"/>
			<path style="fill:#322A28;" d="M761.484,1232.18c0,0-7.028-3.729-14.055,2.151c0,0,12.047-3.442,14.055,1.147
				C763.492,1240.068,761.484,1232.18,761.484,1232.18z"/>
			
				<polyline style="fill:none;stroke:#FFFFFF;stroke-width:0.75;stroke-linecap:round;stroke-linejoin:round;stroke-miterlimit:10;" points="
				825.369,1326.711 795.348,1375 765.726,1329.829 			"/>
			<path style="fill:#322A28;" d="M669.897,1986.844h87.254l0.15-3.55l1.071-23.517h-59.374c-7.351,0-14.151,4.316-19.351,8.816
				c-4.3,3.85-7.5,8.901-9.001,14.701C670.297,1984.444,670.046,1985.644,669.897,1986.844z"/>
			<path style="fill:#FFF1F0;" d="M669.897,1986.844h87.254l0.15-3.55h-86.655C670.297,1984.444,670.046,1985.644,669.897,1986.844z
				"/>
			<g>
				
					<path style="fill:none;stroke:#FFF1F0;stroke-width:1.1415;stroke-linecap:round;stroke-linejoin:round;stroke-miterlimit:10;" d="
					M697.211,1964.616c0,0,7.542-13.237,12.621-8.004C714.912,1961.845,697.211,1964.616,697.211,1964.616"/>
				
					<path style="fill:none;stroke:#FFF1F0;stroke-width:1.1415;stroke-linecap:round;stroke-linejoin:round;stroke-miterlimit:10;" d="
					M699.866,1967.251l-2.655-2.636c0,0-7.542-13.237-12.621-8.004c-5.079,5.233,12.621,8.004,12.621,8.004"/>
				
					<line style="fill:none;stroke:#FFF1F0;stroke-width:1.1415;stroke-linecap:round;stroke-linejoin:round;stroke-miterlimit:10;" x1="695.185" y1="1967.251" x2="697.211" y2="1964.616"/>
			</g>
			<path style="fill:#322A28;" d="M933.956,1986.844h-87.254l-0.15-3.55l-1.071-23.517h59.374c7.351,0,14.151,4.316,19.351,8.816
				c4.301,3.85,7.5,8.901,9.001,14.701C933.556,1984.444,933.806,1985.644,933.956,1986.844z"/>
			<path style="fill:#FFF1F0;" d="M933.956,1986.844h-87.254l-0.15-3.55h86.654C933.556,1984.444,933.806,1985.644,933.956,1986.844
				z"/>
			<g>
				
					<path style="fill:none;stroke:#FFF1F0;stroke-width:1.1415;stroke-linecap:round;stroke-linejoin:round;stroke-miterlimit:10;" d="
					M906.642,1965.417c0,0-7.542-13.237-12.621-8.004C888.941,1962.646,906.642,1965.417,906.642,1965.417"/>
				
					<path style="fill:none;stroke:#FFF1F0;stroke-width:1.1415;stroke-linecap:round;stroke-linejoin:round;stroke-miterlimit:10;" d="
					M903.987,1968.053l2.655-2.636c0,0,7.542-13.237,12.621-8.004c5.079,5.233-12.621,8.004-12.621,8.004"/>
				
					<line style="fill:none;stroke:#FFF1F0;stroke-width:1.1415;stroke-linecap:round;stroke-linejoin:round;stroke-miterlimit:10;" x1="908.668" y1="1968.053" x2="906.642" y2="1965.417"/>
			</g>
			<polyline style="fill:none;stroke:#FFFFFF;stroke-width:1.6534;stroke-miterlimit:10;" points="797.209,1670.047 794.371,1646.8 
				780.104,1636.957 768.512,1589.729 			"/>
			
				<line style="fill:none;stroke:#FFFFFF;stroke-width:1.6534;stroke-miterlimit:10;" x1="699.016" y1="1907.183" x2="755.136" y2="1907.183"/>
			
				<line style="fill:none;stroke:#FFFFFF;stroke-width:1.6534;stroke-miterlimit:10;" x1="849.17" y1="1907.183" x2="905.29" y2="1907.183"/>
		</g>
		<g>
			<polygon style="fill:#586773;" points="634.667,910.295 655.245,910.295 668.35,941.978 644.397,943.703 			"/>
			<polygon style="fill:#586773;" points="448.871,910.295 469.449,910.295 443.185,960.666 432.454,932.013 			"/>
			<path style="fill:#586773;" d="M711.49,1049.285c0-58.159-30.563-109.352-76.822-138.989v153.269l-92.88,53.887l-92.916-53.887
				V910.295c-46.259,29.676-76.785,80.83-76.785,138.989c0,74.473,50.097,137.474,119.099,158.537v556.682
				c-39.147,18.849-66.156,58.892-66.156,105.257c0,64.461,52.262,116.758,116.758,116.758c64.461,0,116.758-52.297,116.758-116.758
				c0-46.36-27.022-86.4-66.16-105.252v-556.686C661.39,1186.761,711.49,1123.759,711.49,1049.285z M627.38,1869.761l-42.814,74.116
				h-85.592l-42.779-74.116l42.779-74.116h85.592L627.38,1869.761z"/>
			<path style="fill:#93ACBF;" d="M732.068,1049.285c0-58.159-30.563-109.352-76.822-138.989v153.269l-92.88,53.887l-92.916-53.887
				V910.295c-46.26,29.676-76.785,80.83-76.785,138.989c0,74.473,50.097,137.474,119.099,158.537v556.682
				c-39.147,18.849-66.156,58.892-66.156,105.257c0,64.461,52.262,116.758,116.758,116.758c64.461,0,116.758-52.297,116.758-116.758
				c0-46.36-27.022-86.4-66.16-105.252v-556.686C681.968,1186.761,732.068,1123.759,732.068,1049.285z M647.958,1869.761
				l-42.814,74.116h-85.592l-42.779-74.116l42.779-74.116h85.592L647.958,1869.761z"/>
			<path style="fill:#586773;" d="M562.363,1722.865L562.363,1722.865c-9.419,0-17.126-7.707-17.126-17.126v-459.19
				c0-9.419,7.707-17.126,17.126-17.126l0,0c9.419,0,17.126,7.707,17.126,17.126v459.19
				C579.49,1715.159,571.783,1722.865,562.363,1722.865z"/>
		</g>
	</g>
	<g>
		<path style="fill:#0775EF;" d="M1787.299,553.731h-411.112c-4.867,0-8.813,4.465-8.813,9.972v23.089v340.139h428.738V586.793
			v-23.089C1796.112,558.196,1792.166,553.731,1787.299,553.731z"/>
		<rect x="1373.828" y="581.223" style="fill:#FFFFFF;" width="415.829" height="339.882"/>
		<rect x="1385.548" y="728.626" style="fill:#BBDBF3;" width="392.39" height="181.232"/>
		<g>
			<path style="fill:#FFFFFF;" d="M1540.699,740.195h2.609v16.791h8.831v2.446h-11.44V740.195z"/>
			<path style="fill:#FFFFFF;" d="M1563.632,759.921c-1.467,0-2.818-0.258-4.049-0.774c-1.231-0.516-2.287-1.227-3.166-2.134
				c-0.879-0.905-1.565-1.973-2.064-3.205c-0.499-1.231-0.747-2.565-0.747-3.996c0-1.431,0.248-2.762,0.747-3.993
				c0.499-1.231,1.185-2.3,2.064-3.207c0.879-0.905,1.935-1.616,3.166-2.132c1.231-0.516,2.582-0.774,4.049-0.774
				s2.816,0.258,4.049,0.774c1.231,0.516,2.285,1.227,3.166,2.132c0.879,0.908,1.565,1.976,2.064,3.207
				c0.499,1.231,0.747,2.563,0.747,3.993c0,1.431-0.248,2.765-0.747,3.996c-0.499,1.231-1.185,2.3-2.064,3.205
				c-0.881,0.908-1.935,1.618-3.166,2.134C1566.448,759.663,1565.1,759.921,1563.632,759.921z M1563.632,757.475
				c1.105,0,2.1-0.204,2.988-0.611c0.888-0.409,1.65-0.956,2.283-1.645c0.635-0.689,1.124-1.499,1.467-2.431
				c0.346-0.932,0.516-1.925,0.516-2.976c0-1.049-0.17-2.042-0.516-2.974c-0.343-0.934-0.832-1.745-1.467-2.434
				c-0.633-0.689-1.394-1.236-2.283-1.643c-0.888-0.409-1.884-0.613-2.988-0.613c-1.105,0-2.103,0.204-2.988,0.613
				c-0.888,0.406-1.65,0.954-2.283,1.643c-0.635,0.689-1.124,1.499-1.467,2.434c-0.346,0.932-0.516,1.925-0.516,2.974
				c0,1.051,0.17,2.044,0.516,2.976c0.343,0.932,0.832,1.742,1.467,2.431c0.633,0.689,1.394,1.236,2.283,1.645
				C1561.53,757.271,1562.528,757.475,1563.632,757.475z"/>
			<path style="fill:#FFFFFF;" d="M1593.794,748.671v9.484c-0.47,0.29-1.005,0.545-1.604,0.762
				c-0.596,0.217-1.217,0.404-1.859,0.557c-0.645,0.153-1.297,0.265-1.957,0.338c-0.662,0.073-1.282,0.109-1.862,0.109
				c-1.63,0-3.086-0.273-4.361-0.815c-1.278-0.543-2.356-1.278-3.234-2.2c-0.878-0.925-1.55-1.998-2.01-3.222
				c-0.462-1.222-0.694-2.511-0.694-3.872c0-1.431,0.248-2.762,0.747-3.993c0.499-1.231,1.185-2.3,2.064-3.207
				c0.878-0.905,1.935-1.616,3.166-2.132c1.231-0.516,2.582-0.774,4.049-0.774c1.774,0,3.224,0.221,4.349,0.664
				c1.122,0.445,2.064,1.056,2.825,1.835l-1.847,1.983c-0.798-0.762-1.64-1.29-2.529-1.589c-0.888-0.299-1.82-0.45-2.798-0.45
				c-1.105,0-2.103,0.204-2.988,0.613c-0.888,0.406-1.65,0.954-2.283,1.643c-0.635,0.689-1.124,1.499-1.467,2.434
				c-0.346,0.932-0.516,1.925-0.516,2.974c0,1.088,0.19,2.098,0.569,3.03c0.382,0.934,0.905,1.745,1.577,2.433
				c0.669,0.689,1.458,1.227,2.363,1.616c0.905,0.389,1.893,0.584,2.962,0.584c0.925,0,1.798-0.085,2.623-0.258
				c0.825-0.173,1.526-0.421,2.105-0.747v-5.354h-4.266v-2.446H1593.794z"/>
			<path style="fill:#FFFFFF;" d="M1598.549,740.195h2.609v19.237h-2.609V740.195z"/>
			<path style="fill:#FFFFFF;" d="M1606.103,740.195h3.424l10.598,15.813h0.053v-15.813h2.609v19.237h-3.314l-10.708-15.816h-0.054
				v15.816h-2.609V740.195z"/>
		</g>
		<g>
			<path style="fill:#FFFFFF;" d="M1509.152,826.006h6.765c1.234,0,2.246,0.165,3.044,0.501c0.796,0.336,1.426,0.762,1.888,1.278
				c0.462,0.516,0.784,1.095,0.964,1.74c0.182,0.642,0.273,1.263,0.273,1.859c0,0.599-0.09,1.219-0.273,1.862
				c-0.18,0.645-0.501,1.224-0.964,1.74c-0.462,0.516-1.093,0.942-1.888,1.278c-0.798,0.333-1.81,0.501-3.044,0.501h-4.156v8.478
				h-2.609V826.006z M1511.76,834.482h3.424c0.506,0,1.01-0.039,1.509-0.122c0.496-0.08,0.942-0.231,1.331-0.448
				c0.389-0.219,0.701-0.531,0.937-0.937c0.236-0.409,0.353-0.939,0.353-1.591c0-0.652-0.117-1.18-0.353-1.589
				c-0.236-0.406-0.547-0.72-0.937-0.937c-0.389-0.217-0.835-0.368-1.331-0.448c-0.499-0.083-1.003-0.124-1.509-0.124h-3.424
				V834.482z"/>
			<path style="fill:#FFFFFF;" d="M1529.287,826.006h2.363l8.235,19.237h-3.044l-1.93-4.755h-9.157l-1.901,4.755h-3.044
				L1529.287,826.006z M1533.959,838.205l-3.585-8.831h-0.056l-3.641,8.831H1533.959z"/>
			<path style="fill:#FFFFFF;" d="M1542.956,841.22c0.47,0.708,1.073,1.229,1.806,1.562c0.735,0.336,1.489,0.504,2.268,0.504
				c0.436,0,0.879-0.068,1.334-0.204c0.453-0.136,0.864-0.338,1.236-0.611c0.37-0.273,0.674-0.606,0.91-1.005
				c0.234-0.399,0.353-0.862,0.353-1.387c0-0.742-0.236-1.307-0.706-1.696c-0.472-0.389-1.056-0.715-1.755-0.978
				c-0.696-0.263-1.458-0.518-2.283-0.762c-0.823-0.246-1.584-0.584-2.283-1.02c-0.696-0.433-1.28-1.017-1.752-1.752
				c-0.47-0.732-0.706-1.725-0.706-2.976c0-0.56,0.122-1.158,0.368-1.793c0.243-0.633,0.628-1.212,1.153-1.737
				c0.526-0.526,1.2-0.966,2.025-1.319c0.825-0.353,1.815-0.528,2.976-0.528c1.049,0,2.056,0.144,3.015,0.433
				c0.961,0.29,1.803,0.879,2.528,1.767l-2.12,1.93c-0.326-0.509-0.789-0.915-1.387-1.224c-0.596-0.307-1.278-0.462-2.037-0.462
				c-0.725,0-1.329,0.097-1.808,0.287c-0.479,0.19-0.864,0.433-1.153,0.732c-0.29,0.299-0.494,0.621-0.613,0.966
				c-0.117,0.343-0.175,0.659-0.175,0.949c0,0.815,0.236,1.441,0.706,1.876c0.472,0.433,1.056,0.789,1.752,1.059
				c0.698,0.273,1.46,0.516,2.283,0.735c0.825,0.217,1.587,0.521,2.283,0.91c0.698,0.389,1.282,0.915,1.752,1.575
				c0.472,0.662,0.708,1.572,0.708,2.733c0,0.922-0.178,1.757-0.53,2.499c-0.353,0.742-0.828,1.368-1.426,1.874
				c-0.599,0.509-1.304,0.898-2.12,1.168c-0.815,0.273-1.684,0.409-2.609,0.409c-1.231,0-2.4-0.217-3.504-0.652
				c-1.107-0.436-1.986-1.105-2.638-2.01L1542.956,841.22z"/>
			<path style="fill:#FFFFFF;" d="M1558.063,841.22c0.47,0.708,1.073,1.229,1.806,1.562c0.735,0.336,1.489,0.504,2.268,0.504
				c0.436,0,0.879-0.068,1.334-0.204c0.453-0.136,0.864-0.338,1.236-0.611c0.37-0.273,0.674-0.606,0.91-1.005
				c0.234-0.399,0.353-0.862,0.353-1.387c0-0.742-0.236-1.307-0.706-1.696c-0.472-0.389-1.056-0.715-1.755-0.978
				c-0.696-0.263-1.458-0.518-2.283-0.762c-0.823-0.246-1.584-0.584-2.283-1.02c-0.696-0.433-1.28-1.017-1.752-1.752
				c-0.47-0.732-0.706-1.725-0.706-2.976c0-0.56,0.122-1.158,0.367-1.793c0.243-0.633,0.628-1.212,1.154-1.737
				c0.526-0.526,1.2-0.966,2.025-1.319c0.825-0.353,1.815-0.528,2.976-0.528c1.049,0,2.056,0.144,3.015,0.433
				c0.961,0.29,1.803,0.879,2.528,1.767l-2.12,1.93c-0.326-0.509-0.789-0.915-1.387-1.224c-0.596-0.307-1.278-0.462-2.037-0.462
				c-0.725,0-1.329,0.097-1.808,0.287c-0.479,0.19-0.864,0.433-1.153,0.732c-0.29,0.299-0.494,0.621-0.613,0.966
				c-0.117,0.343-0.175,0.659-0.175,0.949c0,0.815,0.236,1.441,0.706,1.876c0.472,0.433,1.056,0.789,1.752,1.059
				c0.698,0.273,1.46,0.516,2.283,0.735c0.825,0.217,1.587,0.521,2.283,0.91c0.698,0.389,1.283,0.915,1.752,1.575
				c0.472,0.662,0.708,1.572,0.708,2.733c0,0.922-0.178,1.757-0.531,2.499c-0.353,0.742-0.827,1.368-1.426,1.874
				c-0.599,0.509-1.304,0.898-2.12,1.168c-0.815,0.273-1.684,0.409-2.609,0.409c-1.231,0-2.399-0.217-3.504-0.652
				c-1.107-0.436-1.986-1.105-2.638-2.01L1558.063,841.22z"/>
			<path style="fill:#FFFFFF;" d="M1570.153,826.006h2.718l4.251,15.378h0.054l4.526-15.378h2.988l4.524,15.378h0.054l4.254-15.378
				h2.716l-5.597,19.237h-2.772l-4.646-15.706h-0.054l-4.621,15.706h-2.769L1570.153,826.006z"/>
			<path style="fill:#FFFFFF;" d="M1607.571,845.732c-1.467,0-2.818-0.258-4.049-0.774c-1.231-0.516-2.287-1.227-3.166-2.134
				c-0.879-0.905-1.565-1.974-2.064-3.205c-0.499-1.231-0.747-2.565-0.747-3.996c0-1.431,0.248-2.762,0.747-3.993
				c0.499-1.231,1.185-2.3,2.064-3.207c0.879-0.905,1.935-1.616,3.166-2.132c1.231-0.516,2.582-0.774,4.049-0.774
				c1.467,0,2.816,0.258,4.049,0.774c1.231,0.516,2.285,1.227,3.166,2.132c0.879,0.908,1.565,1.976,2.064,3.207
				c0.499,1.231,0.747,2.563,0.747,3.993c0,1.431-0.248,2.764-0.747,3.996c-0.499,1.231-1.185,2.3-2.064,3.205
				c-0.881,0.908-1.935,1.618-3.166,2.134C1610.387,845.474,1609.038,845.732,1607.571,845.732z M1607.571,843.286
				c1.105,0,2.1-0.204,2.988-0.611c0.888-0.409,1.65-0.956,2.283-1.645c0.635-0.689,1.124-1.499,1.468-2.431
				c0.346-0.932,0.516-1.925,0.516-2.976c0-1.049-0.17-2.042-0.516-2.974c-0.343-0.935-0.832-1.745-1.468-2.434
				c-0.633-0.689-1.394-1.236-2.283-1.643c-0.888-0.409-1.884-0.613-2.988-0.613c-1.105,0-2.103,0.204-2.988,0.613
				c-0.888,0.406-1.65,0.954-2.283,1.643c-0.635,0.689-1.124,1.499-1.467,2.434c-0.346,0.932-0.516,1.925-0.516,2.974
				c0,1.051,0.17,2.044,0.516,2.976c0.343,0.932,0.832,1.742,1.467,2.431c0.633,0.689,1.394,1.236,2.283,1.645
				C1605.469,843.082,1606.466,843.286,1607.571,843.286z"/>
			<path style="fill:#FFFFFF;" d="M1621.347,826.006h6.765c1.234,0,2.246,0.165,3.044,0.501c0.796,0.336,1.426,0.762,1.888,1.278
				c0.462,0.516,0.784,1.095,0.964,1.74c0.182,0.642,0.273,1.263,0.273,1.859c0,0.618-0.109,1.209-0.326,1.781
				c-0.217,0.57-0.53,1.085-0.937,1.548c-0.409,0.462-0.905,0.852-1.494,1.168c-0.589,0.319-1.246,0.513-1.971,0.584l5.463,8.778
				h-3.261l-4.891-8.478h-2.908v8.478h-2.609V826.006z M1623.956,834.482h3.424c0.506,0,1.01-0.039,1.509-0.122
				c0.496-0.08,0.942-0.231,1.331-0.448c0.389-0.219,0.701-0.531,0.937-0.937c0.236-0.409,0.353-0.939,0.353-1.591
				c0-0.652-0.117-1.18-0.353-1.589c-0.236-0.406-0.547-0.72-0.937-0.937c-0.389-0.217-0.835-0.368-1.331-0.448
				c-0.499-0.083-1.003-0.124-1.509-0.124h-3.424V834.482z"/>
			<path style="fill:#FFFFFF;" d="M1637.513,826.006h6.712c1.36,0,2.55,0.153,3.575,0.46c1.022,0.309,1.91,0.72,2.662,1.236
				c0.752,0.518,1.377,1.11,1.874,1.781c0.499,0.669,0.893,1.358,1.183,2.064c0.29,0.708,0.499,1.414,0.625,2.12
				c0.127,0.708,0.19,1.36,0.19,1.957c0,1.234-0.226,2.424-0.679,3.575c-0.453,1.149-1.124,2.173-2.01,3.069
				c-0.888,0.898-1.988,1.618-3.302,2.161c-1.314,0.543-2.83,0.815-4.551,0.815h-6.278V826.006z M1640.122,842.797h3.288
				c1.105,0,2.151-0.148,3.139-0.448c0.988-0.299,1.852-0.747,2.594-1.346c0.745-0.599,1.334-1.346,1.767-2.241
				c0.436-0.898,0.652-1.942,0.652-3.139c0-0.616-0.1-1.336-0.299-2.159c-0.2-0.825-0.574-1.609-1.127-2.351
				c-0.552-0.742-1.319-1.373-2.295-1.888c-0.978-0.516-2.249-0.776-3.806-0.776h-3.913V842.797z"/>
		</g>
		<g>
			<rect x="1402.1" y="771.022" style="fill:#FFFFFF;" width="359.285" height="41.754"/>
			
				<ellipse transform="matrix(0.9239 -0.3827 0.3827 0.9239 -194.6117 605.4161)" style="fill:#BBDBF3;" cx="1424.513" cy="791.898" rx="9.67" ry="9.67"/>
			
				<ellipse transform="matrix(0.9239 -0.3827 0.3827 0.9239 -192.0155 618.4684)" style="fill:#BBDBF3;" cx="1458.62" cy="791.898" rx="9.67" ry="9.67"/>
			
				<ellipse transform="matrix(0.9239 -0.3827 0.3827 0.9239 -189.4193 631.5206)" style="fill:#BBDBF3;" cx="1492.727" cy="791.898" rx="9.67" ry="9.67"/>
			
				<ellipse transform="matrix(0.9239 -0.3827 0.3827 0.9239 -186.823 644.5728)" style="fill:#BBDBF3;" cx="1526.834" cy="791.898" rx="9.67" ry="9.67"/>
			
				<ellipse transform="matrix(0.9239 -0.3827 0.3827 0.9239 -184.2268 657.625)" style="fill:#BBDBF3;" cx="1560.942" cy="791.898" rx="9.67" ry="9.67"/>
		</g>
		<g>
			<rect x="1402.1" y="856.185" style="fill:#FFFFFF;" width="359.285" height="41.754"/>
			<circle style="fill:#BBDBF3;" cx="1424.513" cy="877.061" r="9.67"/>
			<circle style="fill:#BBDBF3;" cx="1457.754" cy="877.061" r="9.67"/>
			<circle style="fill:#BBDBF3;" cx="1490.994" cy="877.061" r="9.67"/>
			<circle style="fill:#BBDBF3;" cx="1524.234" cy="877.061" r="9.67"/>
			<circle style="fill:#BBDBF3;" cx="1557.475" cy="877.061" r="9.67"/>
			<circle style="fill:#BBDBF3;" cx="1590.716" cy="877.061" r="9.67"/>
			<circle style="fill:#BBDBF3;" cx="1623.956" cy="877.061" r="9.67"/>
		</g>
		<g>
			
				<line style="fill:none;stroke:#FFFFFF;stroke-width:2.5409;stroke-linecap:round;stroke-linejoin:round;stroke-miterlimit:10;" x1="1766.202" y1="576.014" x2="1782.048" y2="560.169"/>
			
				<line style="fill:none;stroke:#FFFFFF;stroke-width:2.5409;stroke-linecap:round;stroke-linejoin:round;stroke-miterlimit:10;" x1="1782.048" y1="576.014" x2="1766.202" y2="560.169"/>
		</g>
		<g>
			<path style="fill:#BBDBF3;" d="M1645.647,656.436c0,35.29-28.615,63.905-63.905,63.905c-19.249,0-36.506-8.512-48.2-21.992
				c-9.806-11.203-15.705-25.872-15.705-41.913c0-35.29,28.615-63.905,63.905-63.905
				C1617.033,592.531,1645.647,621.146,1645.647,656.436z"/>
			<path style="fill:#E5F0F8;" d="M1581.743,654.03c-27.528-1.552-41.422,23.337-48.2,44.319
				c11.694,13.479,28.951,21.992,48.2,21.992s36.506-8.512,48.2-21.992C1623.165,677.367,1609.271,652.478,1581.743,654.03z"/>
			<path style="fill:#E5F0F8;" d="M1605.006,633.817c0,18.911-10.414,38.711-23.26,38.711c-12.846,0-23.26-19.8-23.26-38.711
				s10.414-29.773,23.26-29.773C1594.593,604.044,1605.006,614.906,1605.006,633.817z"/>
		</g>
	</g>
	<g>
		<path style="fill:#E5F0F8;" d="M588.986,636.402c0,32.782-26.56,59.343-59.3,59.343H334.495
			c-25.808,0-46.731-20.922-46.731-46.731s20.923-46.731,46.731-46.731c4.677,0,9.187,0.668,13.447,1.963
			c7.767-14.951,23.427-25.14,41.427-25.14c2.214,0,4.343,0.167,6.473,0.459c9.522-29.233,37.001-50.322,69.406-50.322
			c31.53,0,58.383,19.962,68.614,47.983C564.639,579.356,588.986,605.039,588.986,636.402z"/>
		<g>
			<polygon style="fill:#BBDBF3;" points="428.175,644.523 395.703,603.954 363.232,644.523 381.33,644.523 381.33,673.651 
				410.077,673.651 410.077,644.523 			"/>
			<polygon style="fill:#BBDBF3;" points="448.574,633.083 481.046,673.651 513.518,633.083 495.419,633.083 495.419,603.954 
				466.672,603.954 466.672,633.083 			"/>
		</g>
	</g>
	<g>
		<path style="fill:#B37661;" d="M1430.709,1361.784c-1.209,2.146,8.533,13.461,17.868,19.085
			c7.905,4.775,27.315,13.822,33.055,16.448l15.847-24.742c-2.842-2.38-5.889-5.107-8.211-7.773
			c-5.766-6.513-23.46-22.434-25.749-19.845c-2.287,2.546,7.657,15.916,5.814,16.209c-1.844,0.293-11.413-7.813-15.202-11.585
			c-3.831-3.773-10.676-13.176-13.763-12.701c-3.13,0.474-3.591,5.074-3.591,5.074s-2.205-3.901-4.388-2.078
			c-2.183,1.822-0.27,8.748-0.27,8.748s-0.965-2.289-2.869,0.31c-1.905,2.641,4.472,11.946,4.472,11.946
			S1431.876,1359.593,1430.709,1361.784z"/>
		<path style="fill:#322A28;" d="M1679.484,1215.035c20.563,1.788,38.417,19.262,38.669,44.222s4.778,37.802,19.866,34.902
			c0,0-42.263,24.51-97.956,2.884c0,0,6.981-8.277,7.958-27.023C1648.998,1251.274,1679.484,1215.035,1679.484,1215.035z"/>
		<path style="fill:#F9E181;" d="M1571.339,1470.043L1571.339,1470.043c13.102,7.052,29.592,2.101,36.644-11.001l53.006-98.486
			c7.052-13.102,2.101-29.592-11.001-36.644v0c-13.102-7.052-29.592-2.101-36.644,11.001l-53.006,98.486
			C1553.286,1446.501,1558.237,1462.991,1571.339,1470.043z"/>
		<path style="fill:#0775EF;" d="M1691.808,1502.811c17.712,23.191,24.386,71.271,13.092,123.065
			c-11.294,51.794-15.109,85.843-15.109,85.843c-2.944,23.976-24.766,41.025-48.742,38.081
			c-23.976-2.944-41.025-24.766-38.081-48.742l18.009-198.248H1691.808z"/>
		<path style="fill:#F9E181;" d="M1695.713,1312.691l47.345,21.443c0,0-10.526,121.879-11.615,135.211
			c-1.088,13.332,2.993,33.467,2.993,33.467h-113.46c0,0,1.36-65.3-6.258-83.53c-5.161-12.35-8.707-19.862-5.714-34.011
			c2.993-14.148,24.892-39.16,21.355-63.648l24.699-7.91L1695.713,1312.691z"/>
		<path style="fill:#F9E181;" d="M1781.041,1489.705L1781.041,1489.705c13.972-5.116,21.218-20.734,16.102-34.706l-38.455-105.025
			c-5.116-13.972-20.734-21.218-34.706-16.102l0,0c-13.972,5.116-21.218,20.734-16.102,34.706l38.455,105.025
			C1751.451,1487.575,1767.069,1494.822,1781.041,1489.705z"/>
		<path style="fill:#322A28;" d="M1649.35,1242.062c0,0-6.442-15.849,9.042-20.647L1649.35,1242.062z"/>
		<path style="fill:#B37661;" d="M1655.065,1258.627v55.074c0,0,1.11,12.082,15.455,13.149c12.381,0.939,20.279-7.215,23.609-11.57
			l1.75-2.562l0.043-0.042l-5.85-54.05H1655.065z"/>
		<polygon style="fill:#824C3A;" points="1655.074,1307.43 1679.484,1280.886 1655.059,1290.062 		"/>
		<path style="fill:#B37661;" d="M1679.286,1286.767c-11.411,6.728-24.874,6.719-32.995,1.257
			c-8.129-5.432-6.793-17.947-4.373-25.893c0.008-0.031,0.008-0.031,0.016-0.062c0.505-1.643,1.221-3.953,2.02-6.571
			c3.105-10.265,7.694-25.467,7.694-25.467c2.008-8.033,25.018-26.105,46.803-2.538
			C1720.228,1251.09,1690.697,1280.038,1679.286,1286.767z"/>
		<path style="fill:#322A28;" d="M1652.377,1226.783c0,0,0.298,9.627,13.784,16.059c13.485,6.432,26.285,16.268,24.672,30.485
			c-1.613,14.217,3.261,22.238,3.261,22.238s2.007-17.717,10.943-32.721c3.466-5.82,6.503-18.098,0.747-28.684
			C1696.701,1217.456,1673.251,1204.766,1652.377,1226.783z"/>
		<path style="fill:#B37661;" d="M1688.526,1270.272c-2.9,4.286-3.725,7.335-0.36,9.612s9.075,1.738,11.975-2.548
			c2.9-4.286,2.523-9.606-0.842-11.883C1695.934,1263.176,1691.426,1265.986,1688.526,1270.272z"/>
		
			<path style="fill:none;stroke:#824C3A;stroke-width:0.6427;stroke-linecap:round;stroke-linejoin:round;stroke-miterlimit:10;" d="
			M1696.117,1273.468c-2.824-1.375-5.284-0.141-5.284-0.141c1.951-4.889,7.822-2.913,7.822-2.913"/>
		<path style="fill:#2C3447;" d="M1667.338,1257.579c-0.535,1.926-1.98,3.207-3.226,2.861c-1.246-0.346-1.823-2.189-1.287-4.115
			c0.535-1.926,1.98-3.207,3.226-2.861C1667.297,1253.811,1667.874,1255.653,1667.338,1257.579z"/>
		<path style="fill:#2C3447;" d="M1651.675,1251.567c-0.495,1.779-1.828,2.962-2.979,2.642c-1.151-0.32-1.683-2.021-1.189-3.801
			s1.828-2.962,2.979-2.642C1651.637,1248.086,1652.169,1249.787,1651.675,1251.567z"/>
		<path style="fill:#0775EF;" d="M1587.272,1937.294h76.85l26.382-225.885l0.338-5.171c0-24.558-20.234-44.353-44.961-43.61
			c-22.295,0.642-40.975,18.782-42.293,41.077L1587.272,1937.294z"/>
		<path style="fill:none;stroke:#2C3447;stroke-width:0.9542;stroke-miterlimit:10;" d="M1673.934,1254.532
			c0,0-2.533-5.875-7.523-5.392"/>
		<path style="fill:none;stroke:#2C3447;stroke-width:0.9542;stroke-miterlimit:10;" d="M1653.842,1244.72
			c0,0-2.664-1.304-6.5,0.906"/>
		<path style="fill:#088CFC;" d="M1727.611,1937.294h73.337l-23.275-233.319l-0.067-0.811c-1.554-22.667-20.471-40.57-43.543-40.57
			c-24.119,0-43.644,19.525-43.644,43.644c0,1.351,0.067,2.669,0.203,3.952L1727.611,1937.294z"/>
		<path style="fill:#F9E181;" d="M1474.197,1408.954l89.747,56.786l5.309,4.409c10.823,7.499,26.684,3.598,35.203-8.694
			c8.519-12.292,6.592-28.485-4.231-35.985l-100.521-56.341l-2.225,3.444l-15.847,24.742L1474.197,1408.954z"/>
		<path style="fill:none;stroke:#2C3447;stroke-width:0.9542;stroke-miterlimit:10;" d="M1658.17,1253.007
			c0,0-2.874,9.483-8.8,9.094c0,0,1.331,2.117,3.379,3.405"/>
		<path style="fill:#088CFC;" d="M1656.56,1502.832l1.025,6.361l32.916,201.128c2.519,24.036,24.036,41.455,48.073,38.936
			c23.993-2.519,41.455-24.036,38.936-48.072c0,0-3.97-34.027-4.61-87.052c-0.513-41.071-9.82-74.201-24.464-95.633
			c-4.269-6.233-8.965-11.484-14.003-15.668H1656.56z"/>
		<path style="fill:none;stroke:#2C3447;stroke-width:0.9542;stroke-miterlimit:10;" d="M1649.591,1273.193
			c0,0,5.495,4.354,11.879-1.265"/>
		<path style="fill:#A14C53;" d="M1676.654,1265.995c0.057,2.083-3.207,3.863-7.291,3.976c-4.084,0.113-7.442-1.484-7.499-3.567
			c-0.058-2.083,3.206-3.863,7.29-3.976C1673.239,1262.316,1676.596,1263.912,1676.654,1265.995z"/>
		<path style="fill:#A14C53;" d="M1646.248,1261.082c-0.658,1.108-2.322,1.421-4.313,0.987c0.505-1.643,1.221-3.953,2.02-6.571
			C1646.098,1257.453,1647.111,1259.699,1646.248,1261.082z"/>
		<path style="fill:none;stroke:#FFFFFF;stroke-width:0.8445;stroke-miterlimit:10;" d="M1686.587,1279.879
			c-0.474,1.775,0.58,3.599,2.355,4.073c1.775,0.474,3.599-0.58,4.073-2.355c0.474-1.775-0.58-3.599-2.355-4.073
			C1688.885,1277.05,1687.061,1278.104,1686.587,1279.879z"/>
		<polygon style="fill:#B37661;" points="1815.709,1986.844 1759.098,1986.844 1751.754,1975.659 1751.919,1986.844 
			1739.453,1986.844 1740.569,1954.526 1737.837,1937.278 1783.945,1937.278 1784.116,1954.526 		"/>
		<path style="fill:#E5F0F8;" d="M1653.321,1313.478l2.854,57.902l37.954-56.099c-3.33,4.355-11.228,12.509-23.609,11.57
			C1656.175,1325.783,1653.321,1313.478,1653.321,1313.478z"/>
		<polygon style="fill:#FFFFFF;" points="1695.574,1309.552 1667.271,1326.389 1673.252,1336.863 1699.564,1314.435 		"/>
		<polygon style="fill:#FFFFFF;" points="1655.074,1311.966 1667.271,1326.389 1659.905,1335.28 1652.223,1314.62 		"/>
		<g>
			<polygon style="fill:#A5BBD6;" points="1502.934,1490.499 1655.342,1496.891 1620.352,1381.094 1467.945,1374.702 			"/>
			<g>
				<polygon style="fill:#89A5C7;" points="1653.912,1491.281 1705.598,1449.288 1558.185,1443.106 1501.504,1484.889 				"/>
				<polygon style="fill:#A5BBD6;" points="1505.919,1488.094 1658.326,1494.485 1623.337,1378.689 1470.929,1372.297 				"/>
				<polygon style="fill:#89A5C7;" points="1470.929,1372.297 1467.945,1374.702 1620.352,1381.094 1655.342,1496.891 
					1658.326,1494.485 1623.337,1378.689 				"/>
				<polygon style="fill:#586773;" points="1705.598,1449.288 1707.027,1454.898 1655.342,1496.891 1653.643,1491.269 				"/>
			</g>
			<path style="fill:#89A5C7;" d="M1538.265,1436.116c-0.173,4.131,7.252,7.797,16.584,8.188c9.332,0.391,17.038-2.64,17.211-6.771
				c0.173-4.131-7.252-7.797-16.584-8.188C1546.144,1428.954,1538.438,1431.986,1538.265,1436.116z"/>
		</g>
		<polygon style="fill:#B37661;" points="1612.073,1986.844 1625.607,1976.769 1624.454,1986.844 1637.049,1986.844 
			1643.239,1954.526 1646.569,1937.278 1597.728,1937.278 1595.85,1954.526 1556.657,1986.844 		"/>
		<polygon style="fill:#322A28;" points="1784.116,1954.526 1815.709,1986.844 1759.098,1986.844 1751.754,1975.659 
			1751.919,1986.844 1739.453,1986.844 1740.569,1954.526 		"/>
		<polygon style="fill:#322A28;" points="1612.073,1986.844 1625.607,1976.769 1624.454,1986.844 1637.049,1986.844 
			1643.239,1954.526 1595.85,1954.526 1556.657,1986.844 		"/>
		<path style="fill:#B37661;" d="M1592.417,1462.943c-2.21,2.253,0.166,6.214,0.166,6.214s-4.12-1.808-4.738,0.942
			c-0.605,2.56,4.253,6.604,4.886,7.127c-0.462-0.224-2.03-0.777-1.983,2.021c0.027,3.084,9.715,6.518,10.631,6.832
			c-0.348,0.052-2.129,0.326-1.81,2.55c0.377,2.478,14.923,5.705,25.757,4.646c9.139-0.913,29.996-5.329,36.236-6.661l-1.649-29.253
			c-3.816-0.179-8.094-0.582-11.599-1.35c-8.544-1.782-32.242-3.906-32.528-0.462c-0.302,3.405,15.665,8.17,14.364,9.493
			c-1.301,1.323-13.805,0.578-19.093-0.147C1605.711,1464.147,1594.588,1460.706,1592.417,1462.943z"/>
		<path style="fill:#F9E181;" d="M1659.399,1448.519l0.513,8.843l1.649,29.253l0.438,7.765l113.419-1.879
			c13.164-0.452,23.526-13.049,23.03-27.996c-0.551-14.971-11.762-26.784-24.965-26.316l-8.546,1.453l-0.039,0.016
			L1659.399,1448.519z"/>
		<polyline style="fill:none;stroke:#2C3447;stroke-width:0.9542;stroke-miterlimit:10;" points="1680.692,1446.73 
			1734.831,1442.183 1723.702,1411.789 		"/>
		
			<line style="fill:none;stroke:#2C3447;stroke-width:0.9542;stroke-miterlimit:10;" x1="1732.825" y1="1493.206" x2="1757.434" y2="1493.206"/>
		<path style="fill:none;stroke:#F9E181;stroke-width:1.2434;stroke-miterlimit:10;" d="M1660.969,1256.309
			c-1.68,3.385-0.953,7.166,1.626,8.447c2.578,1.28,6.031-0.426,7.711-3.811s0.953-7.166-1.626-8.446
			S1662.65,1252.924,1660.969,1256.309z"/>
		<path style="fill:none;stroke:#F9E181;stroke-width:1.2434;stroke-miterlimit:10;" d="M1645.502,1250.385
			c-1.68,3.385-0.952,7.166,1.626,8.446c2.578,1.28,6.031-0.426,7.711-3.81c1.68-3.385,0.953-7.166-1.626-8.446
			C1650.635,1245.294,1647.182,1247,1645.502,1250.385z"/>
		
			<line style="fill:none;stroke:#F9E181;stroke-width:1.2434;stroke-miterlimit:10;" x1="1661.88" y1="1254.858" x2="1655.614" y2="1252.703"/>
	</g>
	<g>
		<g>
			<polygon style="fill:#F2BB16;" points="846.313,738.88 734.276,813.354 622.259,738.88 			"/>
			<polygon style="fill:#F2BB16;" points="846.313,738.88 846.313,887.829 622.259,887.829 622.259,738.88 734.276,813.354 			"/>
			<polygon style="fill:#F2BB16;" points="622.259,887.829 734.276,813.354 846.313,887.829 			"/>
		</g>
		<g>
			<polygon style="fill:#F9ECB8;" points="854.876,738.88 742.838,813.354 630.822,738.88 			"/>
			<polygon style="fill:#F9E181;" points="854.876,738.88 854.876,887.829 630.822,887.829 630.822,738.88 742.838,813.354 			"/>
			<polygon style="fill:#F9ECB8;" points="630.822,887.829 742.838,813.354 854.876,887.829 			"/>
		</g>
		<circle style="fill:#F74242;" cx="854.876" cy="738.88" r="17.722"/>
	</g>
	<g>
		<g>
			<polygon style="fill:#BBDBF3;" points="1238.172,1753.168 1126.135,1827.642 1014.118,1753.168 			"/>
			<polygon style="fill:#BBDBF3;" points="1238.172,1753.168 1238.172,1902.116 1014.118,1902.116 1014.118,1753.168 
				1126.135,1827.642 			"/>
			<polygon style="fill:#BBDBF3;" points="1014.118,1902.116 1126.135,1827.642 1238.172,1902.116 			"/>
		</g>
		<g>
			<polygon style="fill:#FFFFFF;" points="1249.151,1753.168 1137.113,1827.642 1025.097,1753.168 			"/>
			<polygon style="fill:#E5F0F8;" points="1249.151,1753.168 1249.151,1902.116 1025.097,1902.116 1025.097,1753.168 
				1137.113,1827.642 			"/>
			<polygon style="fill:#FFFFFF;" points="1025.097,1902.116 1137.113,1827.642 1249.151,1902.116 			"/>
		</g>
		<circle style="fill:#6ADB6A;" cx="1249.151" cy="1753.168" r="17.722"/>
	</g>
	<g>
		<path style="fill:#E5F0F8;" d="M651.509,635.035v-9.818l56.679-30.675v14.996l-37.861,20.588l37.861,20.588v14.996
			L651.509,635.035z"/>
		<path style="fill:#E5F0F8;" d="M725.437,677.98l-9.297-4.089l34.947-105.799l9.297,4.363L725.437,677.98z"/>
		<path style="fill:#E5F0F8;" d="M826.36,625.217v9.818l-56.679,30.675v-14.996l37.861-20.588l-37.861-20.588v-14.996
			L826.36,625.217z"/>
	</g>
	<g>
		<path style="fill:#FFFFFF;" d="M1947.169,908.489c-3.868-2.71-8.117-4.693-12.545-5.951c-0.789,4.772-5.057,8.288-9.999,8.036
			c-4.942-0.252-8.819-4.172-9.118-9c-4.521,0.789-8.949,2.329-13.073,4.631c2.81,3.936,2.292,9.433-1.386,12.754
			c-3.678,3.321-9.199,3.276-12.829,0.08c-2.71,3.868-4.693,8.117-5.938,12.534c4.772,0.789,8.277,5.045,8.024,9.987
			c-0.252,4.942-4.185,8.83-9.012,9.129c0.8,4.533,2.34,8.962,4.642,13.086c3.925-2.822,9.435-2.316,12.767,1.375
			c3.321,3.678,3.275,9.223,0.068,12.84c3.868,2.71,8.117,4.693,12.534,5.938c0.789-4.772,5.058-8.288,9.999-8.035
			c4.942,0.252,8.819,4.172,9.118,9c4.521-0.789,8.949-2.329,13.073-4.631c-2.81-3.936-2.292-9.433,1.386-12.754
			c3.678-3.321,9.199-3.276,12.829-0.08c2.71-3.868,4.693-8.117,5.938-12.534c-4.772-0.789-8.277-5.045-8.024-9.987
			c0.252-4.942,4.184-8.83,9.012-9.129c-0.789-4.521-2.329-8.949-4.631-13.073c-3.949,2.821-9.446,2.303-12.767-1.375
			C1943.904,917.639,1943.949,912.118,1947.169,908.489z M1938.166,929.519c7.573,8.387,6.924,21.333-1.476,28.917
			c-8.4,7.584-21.344,6.911-28.917-1.476c-7.584-8.4-6.935-21.345,1.465-28.929C1917.637,920.447,1930.582,921.119,1938.166,929.519
			z"/>
		<path style="fill:#FFFFFF;" d="M1904.756,1036.495c-5.548,11.201-19.129,15.798-30.346,10.242
			c-11.217-5.556-15.79-19.146-10.242-30.347c5.556-11.217,19.137-15.815,30.355-10.258
			C1905.74,1011.688,1910.312,1025.278,1904.756,1036.495z M1930.05,1037.204c1.215-5.081,1.527-10.258,1.019-15.325
			c-5.23,1.129-10.582-1.832-12.333-7.018c-1.75-5.186,0.705-10.769,5.55-13.039c-2.65-4.33-6.035-8.259-10.081-11.565
			c-2.906,4.491-8.772,6.194-13.683,3.761c-4.912-2.433-7.111-8.131-5.3-13.164c-5.081-1.215-10.258-1.527-15.308-1.011
			c1.129,5.23-1.824,10.566-7.01,12.316c-5.186,1.75-10.785-0.713-13.056-5.558c-4.338,2.666-8.267,6.052-11.573,10.097
			c4.5,2.89,6.219,8.763,3.778,13.692c-2.433,4.912-8.156,7.12-13.181,5.292c-1.215,5.081-1.527,10.258-1.011,15.308
			c5.23-1.129,10.582,1.832,12.333,7.018c1.75,5.186-0.705,10.769-5.55,13.039c2.65,4.33,6.035,8.259,10.08,11.565
			c2.907-4.491,8.772-6.194,13.683-3.761c4.912,2.433,7.111,8.131,5.3,13.164c5.081,1.215,10.258,1.527,15.308,1.011
			c-1.129-5.23,1.824-10.566,7.01-12.316c5.186-1.75,10.785,0.713,13.056,5.558c4.33-2.65,8.259-6.035,11.565-10.08
			c-4.508-2.915-6.211-8.78-3.778-13.692C1919.311,1037.567,1925.008,1035.368,1930.05,1037.204z"/>
	</g>
	<path style="fill:#E5F0F8;" d="M463.97,835.287c9.187,21.664,32.663,32.73,54.816,27.313l34.104,80.419l13.936-5.91L532.727,856.7
		c19.346-12.131,27.669-36.702,18.467-58.402c-10.207-24.069-38.006-35.399-62.075-25.192
		C465.05,783.313,453.763,811.218,463.97,835.287z M541.716,802.317c7.949,18.744-0.883,40.584-19.627,48.533
		c-18.851,7.994-40.584-0.884-48.533-19.628c-7.994-18.849,0.777-40.538,19.628-48.532
		C511.928,774.741,533.723,783.467,541.716,802.317z"/>
	<path style="fill:#FFFFFF;" d="M1063.293,1607.435l-31.09-19.017c-3.041,1.43-6.437,2.229-10.019,2.229h0
		c-3.583,0-6.979-0.799-10.02-2.229l-31.09,19.017c0,0-4.227,63.192,41.11,82.247h0
		C1067.52,1670.627,1063.293,1607.435,1063.293,1607.435z"/>
	<path style="fill:#FFFFFF;" d="M1955.032,1280.58h-14.183v-19.598c0-10.433-8.487-18.92-18.921-18.92
		c-10.433,0-18.921,8.488-18.921,18.92v19.598h-14.183c-0.941,0-1.703,0.761-1.703,1.697v52.026c0,0.941,0.761,1.697,1.703,1.697
		h33.107h33.1c0.941,0,1.703-0.755,1.703-1.697v-52.026C1956.736,1281.342,1955.974,1280.58,1955.032,1280.58z M1909.005,1260.983
		c0-7.126,5.798-12.924,12.925-12.924c7.126,0,12.924,5.798,12.924,12.924v19.598h-12.922h-12.927V1260.983z"/>
</g>
</svg>
