<?xml version="1.0" encoding="utf-8"?>
<!-- Generator: Adobe Illustrator 27.5.0, SVG Export Plug-In . SVG Version: 6.00 Build 0)  -->
<svg version="1.1" xmlns="http://www.w3.org/2000/svg" xmlns:xlink="http://www.w3.org/1999/xlink" x="0px" y="0px"
	 viewBox="0 0 500 500" style="enable-background:new 0 0 500 500;" xml:space="preserve">
<g id="BACKGROUND">
	<rect style="fill:#FFFFFF;" width="500" height="500"/>
</g>
<g id="OBJECT">
	<g>
		<path style="fill:#F7FCFC;" d="M97.388,414.836c-83.145-81.426-63.016-223.859,38.708-255.054s192.702-32.844,268.024,30.845
			c75.322,63.689,43.06,197.506,17.042,219.058L97.388,414.836z"/>
		<g>
			<path style="fill:#F7CA7E;" d="M446.86,142.86c-2.54,17.57-14.88,34.75-30.39,43.7c-7.32,4.22-11.88,11.36-12.72,19.17
				l-0.21,2.01l-30.12-3.23l0.21-2c0.84-7.81-2.09-15.75-8.35-21.44c-7.05-6.4-12.74-14.89-16.31-24.1h-0.01
				c-3.16-8.1-4.7-16.77-4.11-25.06c1.71-24.2,24.19-49.18,59.44-45.39c3.98,0.43,7.64,1.17,11.01,2.19
				C441.77,96.69,449.93,121.56,446.86,142.86z"/>
			<path style="fill:none;stroke:#FFFFFF;stroke-width:3;stroke-miterlimit:10;" d="M384.647,205.712
				c0,0-25.853-58.992-8.244-74.934c11.26-10.194,26.091,17.756,14.228,19.202c-11.863,1.445,3.338-27.375,18.566-17.601
				c15.122,9.705-1.701,59.652-14.988,74.36"/>
			<path style="opacity:0.36;fill:#F48F62;" d="M446.86,142.86c-2.54,17.57-14.88,34.75-30.39,43.7
				c-7.32,4.22-11.88,11.36-12.72,19.17l-0.21,2.01l-30.12-3.23l0.21-2c0.84-7.81-2.09-15.75-8.35-21.44
				c-7.05-6.4-12.74-14.89-16.31-24.1c25.23,18.81,102.9-7.03,66.33-68.26C441.77,96.69,449.93,121.56,446.86,142.86z"/>
			<path style="fill:#7458D9;" d="M406.88,204.65l-0.79,7.43l-10.78-1.16l-26.11-2.8l0.8-7.43c0.14-1.37,1.37-2.36,2.74-2.21
				l23.79,2.56l8.14,0.87C406.04,202.06,407.03,203.28,406.88,204.65z"/>
			<path style="fill:#5542B2;" d="M406.09,212.08l-1.04,9.66c-0.76,7.06-7.09,12.16-14.15,11.4l-11.34-1.21
				c-1.98-0.21-3.81-0.87-5.4-1.86c-4.06-2.52-6.55-7.22-6-12.29l1.04-9.66l26.11,2.8L406.09,212.08z"/>
			<path style="opacity:0.27;fill:#020202;" d="M406.88,204.65l-0.79,7.43l-1.04,9.66c-0.76,7.06-7.09,12.16-14.15,11.4l-11.34-1.21
				c-1.98-0.21-3.81-0.87-5.4-1.86c6.05-2.05,17.39-7.36,21.15-19.15c0.93-2.89,1.39-6.17,1.22-9.88l8.14,0.87
				C406.04,202.06,407.03,203.28,406.88,204.65z"/>
		</g>
		<path style="fill:#BFDCE8;" d="M447.446,420.021H52.554c-4.089,0-7.404-3.315-7.404-7.404l0,0c0-4.089,3.315-7.404,7.404-7.404
			h394.892c4.089,0,7.404,3.315,7.404,7.404l0,0C454.85,416.706,451.535,420.021,447.446,420.021z"/>
		<g>
			<path style="fill:#BFDCE8;" d="M445.515,286.014c-1-4.19-2.65-8.12-4.83-11.69c-3.37-5.49-8.01-10.13-13.5-13.5
				c-3.57-2.18-7.51-3.84-11.7-4.84c-3.06-0.74-6.25-1.13-9.54-1.13c-3.29,0-6.49,0.39-9.55,1.13c-4.19,1-8.12,2.66-11.69,4.84
				c-5.49,3.37-10.13,8.01-13.5,13.5c-2.18,3.57-3.83,7.5-4.83,11.69c-0.74,3.06-1.13,6.25-1.13,9.54c0,3.29,0.39,6.49,1.13,9.55
				c1,4.18,2.65,8.11,4.84,11.68c3.36,5.5,8,10.14,13.5,13.5c3.57,2.19,7.5,3.85,11.68,4.85c3.06,0.74,6.26,1.13,9.55,1.13
				c3.29,0,6.48-0.39,9.54-1.13c4.19-1,8.12-2.65,11.69-4.85c5.49-3.36,10.13-7.99,13.5-13.49c2.18-3.57,3.84-7.5,4.84-11.69
				c0.74-3.06,1.13-6.26,1.13-9.55C446.645,292.264,446.255,289.074,445.515,286.014z M385.025,295.554
				c0-11.55,9.37-20.91,20.92-20.91c11.55,0,20.92,9.36,20.92,20.91c0,11.56-9.37,20.92-20.92,20.92
				C394.395,316.474,385.025,307.114,385.025,295.554z"/>
			<g>
				<rect x="396.399" y="242.899" style="fill:#BFDCE8;" width="19.091" height="22.538"/>
				<rect x="396.399" y="325.68" style="fill:#BFDCE8;" width="19.091" height="22.538"/>
			</g>
			<g>
				
					<rect x="425.667" y="255.022" transform="matrix(0.7071 0.7071 -0.7071 0.7071 315.7668 -229.7464)" style="fill:#BFDCE8;" width="19.091" height="22.538"/>
				
					<rect x="367.132" y="313.557" transform="matrix(0.7071 0.7071 -0.7071 0.7071 340.0128 -171.2115)" style="fill:#BFDCE8;" width="19.091" height="22.538"/>
			</g>
			<g>
				
					<rect x="437.79" y="284.289" transform="matrix(-1.836970e-16 1 -1 -1.836970e-16 742.8934 -151.7764)" style="fill:#BFDCE8;" width="19.091" height="22.538"/>
				
					<rect x="355.009" y="284.289" transform="matrix(-1.836970e-16 1 -1 -1.836970e-16 660.1124 -68.9955)" style="fill:#BFDCE8;" width="19.091" height="22.538"/>
			</g>
			<g>
				
					<rect x="425.667" y="313.557" transform="matrix(-0.7071 0.7071 -0.7071 -0.7071 972.6397 246.7713)" style="fill:#BFDCE8;" width="19.091" height="22.538"/>
				
					<rect x="367.132" y="255.022" transform="matrix(-0.7071 0.7071 -0.7071 -0.7071 831.324 188.2364)" style="fill:#BFDCE8;" width="19.091" height="22.538"/>
			</g>
		</g>
		<g>
			<path style="fill:#BFDCE8;" d="M127.23,138.49c-0.537-2.249-1.422-4.359-2.592-6.275c-1.809-2.947-4.3-5.437-7.246-7.246
				c-1.916-1.17-4.031-2.061-6.28-2.598c-1.643-0.397-3.355-0.606-5.121-0.606s-3.484,0.209-5.126,0.606
				c-2.249,0.537-4.359,1.428-6.275,2.598c-2.947,1.809-5.437,4.3-7.246,7.246c-1.17,1.916-2.056,4.026-2.592,6.275
				c-0.397,1.643-0.607,3.355-0.607,5.121c0,1.766,0.21,3.484,0.607,5.126c0.537,2.244,1.422,4.353,2.598,6.269
				c1.804,2.952,4.294,5.443,7.246,7.246c1.916,1.176,4.026,2.067,6.27,2.603c1.642,0.397,3.36,0.607,5.126,0.607
				s3.478-0.209,5.121-0.607c2.249-0.537,4.359-1.422,6.275-2.603c2.947-1.803,5.438-4.289,7.246-7.241
				c1.17-1.916,2.061-4.026,2.598-6.275c0.397-1.643,0.607-3.36,0.607-5.126C127.837,141.845,127.628,140.132,127.23,138.49z
				 M94.761,143.611c0-6.2,5.03-11.224,11.229-11.224c6.2,0,11.229,5.024,11.229,11.224c0,6.205-5.03,11.229-11.229,11.229
				C99.791,154.84,94.761,149.816,94.761,143.611z"/>
			<g>
				<rect x="100.867" y="115.347" style="fill:#BFDCE8;" width="10.247" height="12.098"/>
				<rect x="100.867" y="159.781" style="fill:#BFDCE8;" width="10.247" height="12.098"/>
			</g>
			<g>
				
					<rect x="116.576" y="121.854" transform="matrix(0.7071 0.7071 -0.7071 0.7071 126.0875 -48.5928)" style="fill:#BFDCE8;" width="10.247" height="12.098"/>
				
					<rect x="85.157" y="153.274" transform="matrix(0.7071 0.7071 -0.7071 0.7071 139.1008 -17.1732)" style="fill:#BFDCE8;" width="10.247" height="12.098"/>
			</g>
			<g>
				
					<rect x="123.084" y="137.564" transform="matrix(-1.836970e-16 1 -1 -1.836970e-16 271.8202 15.4059)" style="fill:#BFDCE8;" width="10.247" height="12.098"/>
				
					<rect x="78.649" y="137.564" transform="matrix(-1.836970e-16 1 -1 -1.836970e-16 227.386 59.84)" style="fill:#BFDCE8;" width="10.247" height="12.098"/>
			</g>
			<g>
				
					<rect x="116.576" y="153.274" transform="matrix(-0.7071 0.7071 -0.7071 -0.7071 320.4133 185.925)" style="fill:#BFDCE8;" width="10.247" height="12.098"/>
				
					<rect x="85.157" y="121.854" transform="matrix(-0.7071 0.7071 -0.7071 -0.7071 244.5592 154.5066)" style="fill:#BFDCE8;" width="10.247" height="12.098"/>
			</g>
		</g>
		<g>
			<path style="fill:#213740;" d="M306.164,413.59H188.692l0,0c0-6.954,5.637-12.591,12.59-12.591h92.292
				C300.527,401,306.164,406.637,306.164,413.59L306.164,413.59z"/>
			<rect x="210.526" y="367.513" style="fill:#17282D;" width="73.805" height="33.487"/>
			<rect x="210.526" y="367.513" style="fill:#0F1B1E;" width="73.805" height="15.118"/>
			<path style="fill:#213740;" d="M378.419,371.599H116.437c-9.93,0-17.98-8.05-17.98-17.98V197.791c0-9.93,8.05-17.98,17.98-17.98
				h261.982c9.93,0,17.98,8.05,17.98,17.98v155.827C396.399,363.549,388.349,371.599,378.419,371.599z"/>
			<path style="fill:#17282D;" d="M252.534,357.695c0,2.82-2.286,5.105-5.105,5.105s-5.106-2.286-5.106-5.105
				c0-2.82,2.286-5.106,5.106-5.106S252.534,354.875,252.534,357.695z"/>
			<rect x="113.44" y="199.289" style="fill:#BFDCE8;" width="267.975" height="146.088"/>
		</g>
		<g>
			<rect x="123.053" y="174.255" style="fill:#F7F0DD;" width="248.35" height="171.123"/>
			<circle style="fill:#F8D7D0;" cx="168.363" cy="232.876" r="26.94"/>
			<rect x="123.053" y="174.255" style="fill:#F8D7D0;" width="248.35" height="12.517"/>
			<path style="fill:#F76D8C;" d="M133.952,179.811c0,1.43-1.159,2.588-2.588,2.588c-1.43,0-2.589-1.159-2.589-2.588
				s1.159-2.588,2.589-2.588C132.793,177.223,133.952,178.381,133.952,179.811z"/>
			<path style="fill:#7CCF9A;" d="M144.74,179.811c0,1.43-1.159,2.588-2.589,2.588c-1.43,0-2.588-1.159-2.588-2.588
				s1.159-2.588,2.588-2.588C143.581,177.223,144.74,178.381,144.74,179.811z"/>
			<circle style="fill:#7458D9;" cx="152.94" cy="179.811" r="2.588"/>
			<g>
				
					<text transform="matrix(1 0 0 1 156.9238 239.6055)" style="fill:#F76D8C; font-family:'FontAwesome5FreeSolid'; font-size:22.8766px;">user</text>
			</g>
			<rect x="143.423" y="272.333" style="fill:#7458D9;" width="49.88" height="5.802"/>
			<rect x="146.305" y="288.206" style="fill:#7458D9;" width="44.117" height="5.802"/>
			<rect x="150.644" y="304.078" style="fill:#7458D9;" width="35.438" height="5.802"/>
			<g>
				<path style="fill:#F8D7D0;" d="M153.656,323.997c0,1.184-0.96,2.144-2.144,2.144c-1.184,0-2.144-0.96-2.144-2.144
					c0-1.184,0.96-2.144,2.144-2.144C152.695,321.852,153.656,322.812,153.656,323.997z"/>
				<path style="fill:#F8D7D0;" d="M164.89,323.997c0,1.184-0.96,2.144-2.144,2.144c-1.184,0-2.144-0.96-2.144-2.144
					c0-1.184,0.96-2.144,2.144-2.144C163.93,321.852,164.89,322.812,164.89,323.997z"/>
				<path style="fill:#F76D8C;" d="M176.125,323.997c0,1.184-0.96,2.144-2.144,2.144c-1.184,0-2.144-0.96-2.144-2.144
					c0-1.184,0.96-2.144,2.144-2.144C175.165,321.852,176.125,322.812,176.125,323.997z"/>
				<path style="fill:#F8D7D0;" d="M187.359,323.997c0,1.184-0.96,2.144-2.144,2.144c-1.184,0-2.144-0.96-2.144-2.144
					c0-1.184,0.96-2.144,2.144-2.144C186.399,321.852,187.359,322.812,187.359,323.997z"/>
			</g>
			<rect x="217.037" y="202.98" style="fill:#F8D7D0;" width="1.979" height="131.672"/>
			<rect x="238.51" y="208.354" style="fill:#F8D7D0;" width="27.435" height="27.435"/>
			<path style="fill:#7458D9;" d="M279.052,217.596h70.478c2.552,0,4.621-2.069,4.621-4.621l0,0c0-2.552-2.069-4.621-4.621-4.621
				h-70.478c-2.552,0-4.621,2.069-4.621,4.621l0,0C274.43,215.527,276.499,217.596,279.052,217.596z"/>
			<path style="fill:#9DBCD6;" d="M279.052,235.789h70.478c2.552,0,4.621-2.069,4.621-4.621v0c0-2.552-2.069-4.621-4.621-4.621
				h-70.478c-2.552,0-4.621,2.069-4.621,4.621v0C274.43,233.72,276.499,235.789,279.052,235.789z"/>
			<polygon style="fill:#F76D8C;" points="238.51,220.559 246.344,226.547 258.602,214.641 265.945,222.072 265.945,235.789 
				238.51,235.789 			"/>
			<circle style="fill:#F76D8C;" cx="246.133" cy="216.12" r="2.642"/>
			<rect x="238.51" y="257.512" style="fill:#F8D7D0;" width="27.435" height="27.435"/>
			<path style="fill:#7458D9;" d="M279.052,266.754h70.478c2.552,0,4.621-2.069,4.621-4.621l0,0c0-2.552-2.069-4.621-4.621-4.621
				h-70.478c-2.552,0-4.621,2.069-4.621,4.621l0,0C274.43,264.685,276.499,266.754,279.052,266.754z"/>
			<path style="fill:#9DBCD6;" d="M279.052,284.947h70.478c2.552,0,4.621-2.069,4.621-4.621l0,0c0-2.552-2.069-4.621-4.621-4.621
				h-70.478c-2.552,0-4.621,2.069-4.621,4.621l0,0C274.43,282.878,276.499,284.947,279.052,284.947z"/>
			<polygon style="fill:#F76D8C;" points="238.51,269.716 246.344,275.705 258.602,263.799 265.945,271.229 265.945,284.947 
				238.51,284.947 			"/>
			<circle style="fill:#F76D8C;" cx="246.133" cy="265.278" r="2.642"/>
			<rect x="238.51" y="306.67" style="fill:#F8D7D0;" width="27.435" height="27.435"/>
			<path style="fill:#7458D9;" d="M279.052,315.912h70.478c2.552,0,4.621-2.069,4.621-4.621v0c0-2.552-2.069-4.621-4.621-4.621
				h-70.478c-2.552,0-4.621,2.069-4.621,4.621v0C274.43,313.843,276.499,315.912,279.052,315.912z"/>
			<path style="fill:#9DBCD6;" d="M279.052,334.105h70.478c2.552,0,4.621-2.069,4.621-4.621l0,0c0-2.552-2.069-4.621-4.621-4.621
				h-70.478c-2.552,0-4.621,2.069-4.621,4.621l0,0C274.43,332.036,276.499,334.105,279.052,334.105z"/>
			<polygon style="fill:#F76D8C;" points="238.51,318.874 246.344,324.863 258.602,312.957 265.945,320.388 265.945,334.105 
				238.51,334.105 			"/>
			<circle style="fill:#F76D8C;" cx="246.133" cy="314.436" r="2.642"/>
		</g>
		<g>
			<path style="fill:#7458D9;" d="M126.88,261.773H67.895c-5.089,0-9.215-4.126-9.215-9.215v-49.613
				c0-5.089,4.126-9.215,9.215-9.215h58.985c5.09,0,9.215,4.126,9.215,9.215v49.613C136.096,257.647,131.97,261.773,126.88,261.773z
				"/>
			<circle style="fill:#5540BF;" cx="97.388" cy="227.751" r="24.771"/>
			
				<ellipse transform="matrix(0.7071 -0.7071 0.7071 0.7071 -132.52 135.5702)" style="fill:#F8D7D0;" cx="97.388" cy="227.751" rx="19.906" ry="19.906"/>
			<path style="fill:#F76D8C;" d="M106.755,225.415l-12.73-7.35c-1.798-1.038-4.046,0.259-4.046,2.336v14.699
				c0,2.076,2.248,3.374,4.046,2.336l12.73-7.35C108.553,229.049,108.553,226.453,106.755,225.415z"/>
		</g>
		<polygon style="fill:#F76D8C;" points="396.396,350.426 396.396,414.836 314.286,414.836 314.286,362.796 326.666,350.426 		"/>
		<polygon style="fill:#F7F0DD;" points="314.286,362.796 326.666,350.426 326.666,362.796 		"/>
		
			<text transform="matrix(1 0 0 1 329.4432 396.7527)" style="fill:#F7FCFC; font-family:'Lato-Black'; font-size:39.286px; letter-spacing:-3;">&lt;/&gt;</text>
		<g>
			<path style="fill:#BFDCE8;" d="M55.347,262.073l-0.008,6.059c-0.001,0.57,0.151,1.13,0.438,1.622l43.947,75.181l-5.784,3.381
				l-43.947-75.181c-0.288-0.492-0.701-0.899-1.199-1.178l-5.284-2.966c-0.775-0.435-1.335-1.172-1.545-2.036l-3.395-13.912
				c-0.336-1.378,0.273-2.812,1.497-3.528h0c1.224-0.716,2.773-0.542,3.809,0.427l10.457,9.785
				C54.981,260.335,55.349,261.184,55.347,262.073z"/>
			<path style="fill:#F76D8C;" d="M133.03,408.56c-4.64,2.71-10.61,1.15-13.33-3.5L91.96,357.6l-3.54-6.06l16.82-9.83l3.6,6.16
				l27.69,47.36C139.24,399.87,137.68,405.84,133.03,408.56z"/>
			<path style="fill:#F98FAB;" d="M100.853,333.969l-17.022,9.95c-1.104,0.645-1.476,2.064-0.831,3.168l2.151,3.681
				c0.646,1.104,2.064,1.476,3.168,0.831l17.022-9.95c1.104-0.645,1.476-2.064,0.831-3.168l-2.152-3.681
				C103.375,333.696,101.957,333.324,100.853,333.969z"/>
			<g>
				<path style="fill:#ED4370;" d="M121.673,396.763L121.673,396.763c-0.797,0.466-1.822,0.198-2.288-0.6l-27.328-46.75l2.887-1.688
					l27.328,46.75C122.739,395.273,122.471,396.297,121.673,396.763z"/>
				<path style="fill:#ED4370;" d="M128.331,392.872L128.331,392.872c-0.797,0.466-1.822,0.198-2.288-0.6l-27.328-46.75l2.887-1.688
					l27.328,46.75C129.397,391.382,129.128,392.406,128.331,392.872z"/>
			</g>
			<polygon style="opacity:0.47;fill:#C42758;" points="108.84,347.87 91.96,357.6 88.42,351.54 105.24,341.71 			"/>
		</g>
		<g>
			<g>
				<path style="fill:#BFDCE8;" d="M284.678,164.679h-104.87c-10.06,0-17.89-8.91-16.38-18.85c0.86-5.69,3.53-10.57,8.51-12.5
					c10.22-3.96,17.84,4.82,18.22,5.27c0.01,0.01,0.02,0.01,0.02,0.02c0,0,6.62-36.95,44.08-36.64
					c37.47,0.3,34.63,36.64,34.63,36.64s11.25-9.17,24.48-3.48c1.13,0.48,2.11,1.09,2.97,1.81c1.68,1.4,2.89,3.19,3.75,5.2
					C304.668,152.839,296.308,164.679,284.678,164.679z"/>
				<g>
					<polygon style="fill:#7458D9;" points="232.546,121.401 216.491,143.274 248.6,143.274 					"/>
					<rect x="226.29" y="141.09" style="fill:#7458D9;" width="12.511" height="23.593"/>
				</g>
			</g>
			<path style="opacity:0.1;fill:#6241D3;" d="M284.678,164.679h-104.87c-10.06,0-17.89-8.91-16.38-18.85
				c0.86-5.69,3.53-10.57,8.51-12.5c10.22-3.96,17.84,4.82,18.22,5.27c0.01,0.01,0.02,0.01,0.02,0.02
				c13.46,20.25,90.41,27.82,106.16-1.67c1.68,1.4,2.89,3.19,3.75,5.2C304.668,152.839,296.308,164.679,284.678,164.679z"/>
		</g>
	</g>
</g>
</svg>
